<?xml version="1.0" encoding="utf-8" standalone="no"?>
<!DOCTYPE svg PUBLIC "-//W3C//DTD SVG 1.1//EN"
  "http://www.w3.org/Graphics/SVG/1.1/DTD/svg11.dtd">
<!-- Created with matplotlib (https://matplotlib.org/) -->
<svg height="552.96pt" version="1.1" viewBox="0 0 702.72 552.96" width="702.72pt" xmlns="http://www.w3.org/2000/svg" xmlns:xlink="http://www.w3.org/1999/xlink">
 <metadata>
  <rdf:RDF xmlns:cc="http://creativecommons.org/ns#" xmlns:dc="http://purl.org/dc/elements/1.1/" xmlns:rdf="http://www.w3.org/1999/02/22-rdf-syntax-ns#">
   <cc:Work>
    <dc:type rdf:resource="http://purl.org/dc/dcmitype/StillImage"/>
    <dc:date>2021-10-27T19:54:27.977410</dc:date>
    <dc:format>image/svg+xml</dc:format>
    <dc:creator>
     <cc:Agent>
      <dc:title>Matplotlib v3.3.4, https://matplotlib.org/</dc:title>
     </cc:Agent>
    </dc:creator>
   </cc:Work>
  </rdf:RDF>
 </metadata>
 <defs>
  <style type="text/css">*{stroke-linecap:butt;stroke-linejoin:round;}</style>
 </defs>
 <g id="figure_1">
  <g id="patch_1">
   <path d="M 0 552.96 
L 702.72 552.96 
L 702.72 0 
L 0 0 
z
" style="fill:#ffffff;"/>
  </g>
  <g id="axes_1">
   <g id="patch_2">
    <path d="M 87.84 259.8912 
L 335.389091 259.8912 
L 335.389091 66.3552 
L 87.84 66.3552 
z
" style="fill:#ffffff;"/>
   </g>
   <g id="PathCollection_1">
    <defs>
     <path d="M 0 0 
L -3.872983 -1.290994 
L -3.227486 0 
L -3.872983 1.290994 
" id="mcaf79cc9b2" style="stroke:#1f77b4;"/>
    </defs>
    <g clip-path="url(#p9f4c75de58)">
     <use style="fill:#1f77b4;stroke:#1f77b4;" x="324.13686" xlink:href="#mcaf79cc9b2" y="248.141944"/>
    </g>
   </g>
   <g id="PathCollection_2">
    <defs>
     <path d="M 0 0 
L -3.872983 -1.290994 
L -3.227486 0 
L -3.872983 1.290994 
" id="m7004dfc307" style="stroke:#ff7f0e;"/>
    </defs>
    <g clip-path="url(#p9f4c75de58)">
     <use style="fill:#ff7f0e;stroke:#ff7f0e;" x="324.13686" xlink:href="#m7004dfc307" y="251.0505"/>
    </g>
   </g>
   <g id="matplotlib.axis_1">
    <g id="xtick_1">
     <g id="line2d_1">
      <path clip-path="url(#p9f4c75de58)" d="M 98.950516 259.8912 
L 98.950516 66.3552 
" style="fill:none;stroke:#b0b0b0;stroke-linecap:square;stroke-width:0.8;"/>
     </g>
     <g id="line2d_2">
      <defs>
       <path d="M 0 0 
L 0 3.5 
" id="md0cb480c53" style="stroke:#000000;stroke-width:0.8;"/>
      </defs>
      <g>
       <use style="stroke:#000000;stroke-width:0.8;" x="98.950516" xlink:href="#md0cb480c53" y="259.8912"/>
      </g>
     </g>
     <g id="text_1">
      <!-- 0.00 -->
      <g transform="translate(87.817703 274.489638)scale(0.1 -0.1)">
       <defs>
        <path d="M 31.78125 66.40625 
Q 24.171875 66.40625 20.328125 58.90625 
Q 16.5 51.421875 16.5 36.375 
Q 16.5 21.390625 20.328125 13.890625 
Q 24.171875 6.390625 31.78125 6.390625 
Q 39.453125 6.390625 43.28125 13.890625 
Q 47.125 21.390625 47.125 36.375 
Q 47.125 51.421875 43.28125 58.90625 
Q 39.453125 66.40625 31.78125 66.40625 
z
M 31.78125 74.21875 
Q 44.046875 74.21875 50.515625 64.515625 
Q 56.984375 54.828125 56.984375 36.375 
Q 56.984375 17.96875 50.515625 8.265625 
Q 44.046875 -1.421875 31.78125 -1.421875 
Q 19.53125 -1.421875 13.0625 8.265625 
Q 6.59375 17.96875 6.59375 36.375 
Q 6.59375 54.828125 13.0625 64.515625 
Q 19.53125 74.21875 31.78125 74.21875 
z
" id="DejaVuSans-48"/>
        <path d="M 10.6875 12.40625 
L 21 12.40625 
L 21 0 
L 10.6875 0 
z
" id="DejaVuSans-46"/>
       </defs>
       <use xlink:href="#DejaVuSans-48"/>
       <use x="63.623047" xlink:href="#DejaVuSans-46"/>
       <use x="95.410156" xlink:href="#DejaVuSans-48"/>
       <use x="159.033203" xlink:href="#DejaVuSans-48"/>
      </g>
     </g>
    </g>
    <g id="xtick_2">
     <g id="line2d_3">
      <path clip-path="url(#p9f4c75de58)" d="M 134.379456 259.8912 
L 134.379456 66.3552 
" style="fill:none;stroke:#b0b0b0;stroke-linecap:square;stroke-width:0.8;"/>
     </g>
     <g id="line2d_4">
      <g>
       <use style="stroke:#000000;stroke-width:0.8;" x="134.379456" xlink:href="#md0cb480c53" y="259.8912"/>
      </g>
     </g>
     <g id="text_2">
      <!-- 0.25 -->
      <g transform="translate(123.246643 274.489638)scale(0.1 -0.1)">
       <defs>
        <path d="M 19.1875 8.296875 
L 53.609375 8.296875 
L 53.609375 0 
L 7.328125 0 
L 7.328125 8.296875 
Q 12.9375 14.109375 22.625 23.890625 
Q 32.328125 33.6875 34.8125 36.53125 
Q 39.546875 41.84375 41.421875 45.53125 
Q 43.3125 49.21875 43.3125 52.78125 
Q 43.3125 58.59375 39.234375 62.25 
Q 35.15625 65.921875 28.609375 65.921875 
Q 23.96875 65.921875 18.8125 64.3125 
Q 13.671875 62.703125 7.8125 59.421875 
L 7.8125 69.390625 
Q 13.765625 71.78125 18.9375 73 
Q 24.125 74.21875 28.421875 74.21875 
Q 39.75 74.21875 46.484375 68.546875 
Q 53.21875 62.890625 53.21875 53.421875 
Q 53.21875 48.921875 51.53125 44.890625 
Q 49.859375 40.875 45.40625 35.40625 
Q 44.1875 33.984375 37.640625 27.21875 
Q 31.109375 20.453125 19.1875 8.296875 
z
" id="DejaVuSans-50"/>
        <path d="M 10.796875 72.90625 
L 49.515625 72.90625 
L 49.515625 64.59375 
L 19.828125 64.59375 
L 19.828125 46.734375 
Q 21.96875 47.46875 24.109375 47.828125 
Q 26.265625 48.1875 28.421875 48.1875 
Q 40.625 48.1875 47.75 41.5 
Q 54.890625 34.8125 54.890625 23.390625 
Q 54.890625 11.625 47.5625 5.09375 
Q 40.234375 -1.421875 26.90625 -1.421875 
Q 22.3125 -1.421875 17.546875 -0.640625 
Q 12.796875 0.140625 7.71875 1.703125 
L 7.71875 11.625 
Q 12.109375 9.234375 16.796875 8.0625 
Q 21.484375 6.890625 26.703125 6.890625 
Q 35.15625 6.890625 40.078125 11.328125 
Q 45.015625 15.765625 45.015625 23.390625 
Q 45.015625 31 40.078125 35.4375 
Q 35.15625 39.890625 26.703125 39.890625 
Q 22.75 39.890625 18.8125 39.015625 
Q 14.890625 38.140625 10.796875 36.28125 
z
" id="DejaVuSans-53"/>
       </defs>
       <use xlink:href="#DejaVuSans-48"/>
       <use x="63.623047" xlink:href="#DejaVuSans-46"/>
       <use x="95.410156" xlink:href="#DejaVuSans-50"/>
       <use x="159.033203" xlink:href="#DejaVuSans-53"/>
      </g>
     </g>
    </g>
    <g id="xtick_3">
     <g id="line2d_5">
      <path clip-path="url(#p9f4c75de58)" d="M 169.808396 259.8912 
L 169.808396 66.3552 
" style="fill:none;stroke:#b0b0b0;stroke-linecap:square;stroke-width:0.8;"/>
     </g>
     <g id="line2d_6">
      <g>
       <use style="stroke:#000000;stroke-width:0.8;" x="169.808396" xlink:href="#md0cb480c53" y="259.8912"/>
      </g>
     </g>
     <g id="text_3">
      <!-- 0.50 -->
      <g transform="translate(158.675584 274.489638)scale(0.1 -0.1)">
       <use xlink:href="#DejaVuSans-48"/>
       <use x="63.623047" xlink:href="#DejaVuSans-46"/>
       <use x="95.410156" xlink:href="#DejaVuSans-53"/>
       <use x="159.033203" xlink:href="#DejaVuSans-48"/>
      </g>
     </g>
    </g>
    <g id="xtick_4">
     <g id="line2d_7">
      <path clip-path="url(#p9f4c75de58)" d="M 205.237336 259.8912 
L 205.237336 66.3552 
" style="fill:none;stroke:#b0b0b0;stroke-linecap:square;stroke-width:0.8;"/>
     </g>
     <g id="line2d_8">
      <g>
       <use style="stroke:#000000;stroke-width:0.8;" x="205.237336" xlink:href="#md0cb480c53" y="259.8912"/>
      </g>
     </g>
     <g id="text_4">
      <!-- 0.75 -->
      <g transform="translate(194.104524 274.489638)scale(0.1 -0.1)">
       <defs>
        <path d="M 8.203125 72.90625 
L 55.078125 72.90625 
L 55.078125 68.703125 
L 28.609375 0 
L 18.3125 0 
L 43.21875 64.59375 
L 8.203125 64.59375 
z
" id="DejaVuSans-55"/>
       </defs>
       <use xlink:href="#DejaVuSans-48"/>
       <use x="63.623047" xlink:href="#DejaVuSans-46"/>
       <use x="95.410156" xlink:href="#DejaVuSans-55"/>
       <use x="159.033203" xlink:href="#DejaVuSans-53"/>
      </g>
     </g>
    </g>
    <g id="xtick_5">
     <g id="line2d_9">
      <path clip-path="url(#p9f4c75de58)" d="M 240.666276 259.8912 
L 240.666276 66.3552 
" style="fill:none;stroke:#b0b0b0;stroke-linecap:square;stroke-width:0.8;"/>
     </g>
     <g id="line2d_10">
      <g>
       <use style="stroke:#000000;stroke-width:0.8;" x="240.666276" xlink:href="#md0cb480c53" y="259.8912"/>
      </g>
     </g>
     <g id="text_5">
      <!-- 1.00 -->
      <g transform="translate(229.533464 274.489638)scale(0.1 -0.1)">
       <defs>
        <path d="M 12.40625 8.296875 
L 28.515625 8.296875 
L 28.515625 63.921875 
L 10.984375 60.40625 
L 10.984375 69.390625 
L 28.421875 72.90625 
L 38.28125 72.90625 
L 38.28125 8.296875 
L 54.390625 8.296875 
L 54.390625 0 
L 12.40625 0 
z
" id="DejaVuSans-49"/>
       </defs>
       <use xlink:href="#DejaVuSans-49"/>
       <use x="63.623047" xlink:href="#DejaVuSans-46"/>
       <use x="95.410156" xlink:href="#DejaVuSans-48"/>
       <use x="159.033203" xlink:href="#DejaVuSans-48"/>
      </g>
     </g>
    </g>
    <g id="xtick_6">
     <g id="line2d_11">
      <path clip-path="url(#p9f4c75de58)" d="M 276.095217 259.8912 
L 276.095217 66.3552 
" style="fill:none;stroke:#b0b0b0;stroke-linecap:square;stroke-width:0.8;"/>
     </g>
     <g id="line2d_12">
      <g>
       <use style="stroke:#000000;stroke-width:0.8;" x="276.095217" xlink:href="#md0cb480c53" y="259.8912"/>
      </g>
     </g>
     <g id="text_6">
      <!-- 1.25 -->
      <g transform="translate(264.962404 274.489638)scale(0.1 -0.1)">
       <use xlink:href="#DejaVuSans-49"/>
       <use x="63.623047" xlink:href="#DejaVuSans-46"/>
       <use x="95.410156" xlink:href="#DejaVuSans-50"/>
       <use x="159.033203" xlink:href="#DejaVuSans-53"/>
      </g>
     </g>
    </g>
    <g id="xtick_7">
     <g id="line2d_13">
      <path clip-path="url(#p9f4c75de58)" d="M 311.524157 259.8912 
L 311.524157 66.3552 
" style="fill:none;stroke:#b0b0b0;stroke-linecap:square;stroke-width:0.8;"/>
     </g>
     <g id="line2d_14">
      <g>
       <use style="stroke:#000000;stroke-width:0.8;" x="311.524157" xlink:href="#md0cb480c53" y="259.8912"/>
      </g>
     </g>
     <g id="text_7">
      <!-- 1.50 -->
      <g transform="translate(300.391344 274.489638)scale(0.1 -0.1)">
       <use xlink:href="#DejaVuSans-49"/>
       <use x="63.623047" xlink:href="#DejaVuSans-46"/>
       <use x="95.410156" xlink:href="#DejaVuSans-53"/>
       <use x="159.033203" xlink:href="#DejaVuSans-48"/>
      </g>
     </g>
    </g>
    <g id="text_8">
     <!-- i -->
     <g transform="translate(210.225483 288.167763)scale(0.1 -0.1)">
      <defs>
       <path d="M 9.421875 54.6875 
L 18.40625 54.6875 
L 18.40625 0 
L 9.421875 0 
z
M 9.421875 75.984375 
L 18.40625 75.984375 
L 18.40625 64.59375 
L 9.421875 64.59375 
z
" id="DejaVuSans-105"/>
      </defs>
      <use xlink:href="#DejaVuSans-105"/>
     </g>
    </g>
    <g id="text_9">
     <!-- 1e5 -->
     <g transform="translate(316.510966 287.167763)scale(0.1 -0.1)">
      <defs>
       <path d="M 56.203125 29.59375 
L 56.203125 25.203125 
L 14.890625 25.203125 
Q 15.484375 15.921875 20.484375 11.0625 
Q 25.484375 6.203125 34.421875 6.203125 
Q 39.59375 6.203125 44.453125 7.46875 
Q 49.3125 8.734375 54.109375 11.28125 
L 54.109375 2.78125 
Q 49.265625 0.734375 44.1875 -0.34375 
Q 39.109375 -1.421875 33.890625 -1.421875 
Q 20.796875 -1.421875 13.15625 6.1875 
Q 5.515625 13.8125 5.515625 26.8125 
Q 5.515625 40.234375 12.765625 48.109375 
Q 20.015625 56 32.328125 56 
Q 43.359375 56 49.78125 48.890625 
Q 56.203125 41.796875 56.203125 29.59375 
z
M 47.21875 32.234375 
Q 47.125 39.59375 43.09375 43.984375 
Q 39.0625 48.390625 32.421875 48.390625 
Q 24.90625 48.390625 20.390625 44.140625 
Q 15.875 39.890625 15.1875 32.171875 
z
" id="DejaVuSans-101"/>
      </defs>
      <use xlink:href="#DejaVuSans-49"/>
      <use x="63.623047" xlink:href="#DejaVuSans-101"/>
      <use x="125.146484" xlink:href="#DejaVuSans-53"/>
     </g>
    </g>
   </g>
   <g id="matplotlib.axis_2">
    <g id="ytick_1">
     <g id="line2d_15">
      <path clip-path="url(#p9f4c75de58)" d="M 87.84 251.050434 
L 335.389091 251.050434 
" style="fill:none;stroke:#b0b0b0;stroke-linecap:square;stroke-width:0.8;"/>
     </g>
     <g id="line2d_16">
      <defs>
       <path d="M 0 0 
L -3.5 0 
" id="m64c8374b6d" style="stroke:#000000;stroke-width:0.8;"/>
      </defs>
      <g>
       <use style="stroke:#000000;stroke-width:0.8;" x="87.84" xlink:href="#m64c8374b6d" y="251.050434"/>
      </g>
     </g>
     <g id="text_10">
      <!-- 0.0 -->
      <g transform="translate(64.936875 254.849653)scale(0.1 -0.1)">
       <use xlink:href="#DejaVuSans-48"/>
       <use x="63.623047" xlink:href="#DejaVuSans-46"/>
       <use x="95.410156" xlink:href="#DejaVuSans-48"/>
      </g>
     </g>
    </g>
    <g id="ytick_2">
     <g id="line2d_17">
      <path clip-path="url(#p9f4c75de58)" d="M 87.84 216.943752 
L 335.389091 216.943752 
" style="fill:none;stroke:#b0b0b0;stroke-linecap:square;stroke-width:0.8;"/>
     </g>
     <g id="line2d_18">
      <g>
       <use style="stroke:#000000;stroke-width:0.8;" x="87.84" xlink:href="#m64c8374b6d" y="216.943752"/>
      </g>
     </g>
     <g id="text_11">
      <!-- 0.2 -->
      <g transform="translate(64.936875 220.742971)scale(0.1 -0.1)">
       <use xlink:href="#DejaVuSans-48"/>
       <use x="63.623047" xlink:href="#DejaVuSans-46"/>
       <use x="95.410156" xlink:href="#DejaVuSans-50"/>
      </g>
     </g>
    </g>
    <g id="ytick_3">
     <g id="line2d_19">
      <path clip-path="url(#p9f4c75de58)" d="M 87.84 182.837071 
L 335.389091 182.837071 
" style="fill:none;stroke:#b0b0b0;stroke-linecap:square;stroke-width:0.8;"/>
     </g>
     <g id="line2d_20">
      <g>
       <use style="stroke:#000000;stroke-width:0.8;" x="87.84" xlink:href="#m64c8374b6d" y="182.837071"/>
      </g>
     </g>
     <g id="text_12">
      <!-- 0.4 -->
      <g transform="translate(64.936875 186.63629)scale(0.1 -0.1)">
       <defs>
        <path d="M 37.796875 64.3125 
L 12.890625 25.390625 
L 37.796875 25.390625 
z
M 35.203125 72.90625 
L 47.609375 72.90625 
L 47.609375 25.390625 
L 58.015625 25.390625 
L 58.015625 17.1875 
L 47.609375 17.1875 
L 47.609375 0 
L 37.796875 0 
L 37.796875 17.1875 
L 4.890625 17.1875 
L 4.890625 26.703125 
z
" id="DejaVuSans-52"/>
       </defs>
       <use xlink:href="#DejaVuSans-48"/>
       <use x="63.623047" xlink:href="#DejaVuSans-46"/>
       <use x="95.410156" xlink:href="#DejaVuSans-52"/>
      </g>
     </g>
    </g>
    <g id="ytick_4">
     <g id="line2d_21">
      <path clip-path="url(#p9f4c75de58)" d="M 87.84 148.730389 
L 335.389091 148.730389 
" style="fill:none;stroke:#b0b0b0;stroke-linecap:square;stroke-width:0.8;"/>
     </g>
     <g id="line2d_22">
      <g>
       <use style="stroke:#000000;stroke-width:0.8;" x="87.84" xlink:href="#m64c8374b6d" y="148.730389"/>
      </g>
     </g>
     <g id="text_13">
      <!-- 0.6 -->
      <g transform="translate(64.936875 152.529608)scale(0.1 -0.1)">
       <defs>
        <path d="M 33.015625 40.375 
Q 26.375 40.375 22.484375 35.828125 
Q 18.609375 31.296875 18.609375 23.390625 
Q 18.609375 15.53125 22.484375 10.953125 
Q 26.375 6.390625 33.015625 6.390625 
Q 39.65625 6.390625 43.53125 10.953125 
Q 47.40625 15.53125 47.40625 23.390625 
Q 47.40625 31.296875 43.53125 35.828125 
Q 39.65625 40.375 33.015625 40.375 
z
M 52.59375 71.296875 
L 52.59375 62.3125 
Q 48.875 64.0625 45.09375 64.984375 
Q 41.3125 65.921875 37.59375 65.921875 
Q 27.828125 65.921875 22.671875 59.328125 
Q 17.53125 52.734375 16.796875 39.40625 
Q 19.671875 43.65625 24.015625 45.921875 
Q 28.375 48.1875 33.59375 48.1875 
Q 44.578125 48.1875 50.953125 41.515625 
Q 57.328125 34.859375 57.328125 23.390625 
Q 57.328125 12.15625 50.6875 5.359375 
Q 44.046875 -1.421875 33.015625 -1.421875 
Q 20.359375 -1.421875 13.671875 8.265625 
Q 6.984375 17.96875 6.984375 36.375 
Q 6.984375 53.65625 15.1875 63.9375 
Q 23.390625 74.21875 37.203125 74.21875 
Q 40.921875 74.21875 44.703125 73.484375 
Q 48.484375 72.75 52.59375 71.296875 
z
" id="DejaVuSans-54"/>
       </defs>
       <use xlink:href="#DejaVuSans-48"/>
       <use x="63.623047" xlink:href="#DejaVuSans-46"/>
       <use x="95.410156" xlink:href="#DejaVuSans-54"/>
      </g>
     </g>
    </g>
    <g id="ytick_5">
     <g id="line2d_23">
      <path clip-path="url(#p9f4c75de58)" d="M 87.84 114.623707 
L 335.389091 114.623707 
" style="fill:none;stroke:#b0b0b0;stroke-linecap:square;stroke-width:0.8;"/>
     </g>
     <g id="line2d_24">
      <g>
       <use style="stroke:#000000;stroke-width:0.8;" x="87.84" xlink:href="#m64c8374b6d" y="114.623707"/>
      </g>
     </g>
     <g id="text_14">
      <!-- 0.8 -->
      <g transform="translate(64.936875 118.422926)scale(0.1 -0.1)">
       <defs>
        <path d="M 31.78125 34.625 
Q 24.75 34.625 20.71875 30.859375 
Q 16.703125 27.09375 16.703125 20.515625 
Q 16.703125 13.921875 20.71875 10.15625 
Q 24.75 6.390625 31.78125 6.390625 
Q 38.8125 6.390625 42.859375 10.171875 
Q 46.921875 13.96875 46.921875 20.515625 
Q 46.921875 27.09375 42.890625 30.859375 
Q 38.875 34.625 31.78125 34.625 
z
M 21.921875 38.8125 
Q 15.578125 40.375 12.03125 44.71875 
Q 8.5 49.078125 8.5 55.328125 
Q 8.5 64.0625 14.71875 69.140625 
Q 20.953125 74.21875 31.78125 74.21875 
Q 42.671875 74.21875 48.875 69.140625 
Q 55.078125 64.0625 55.078125 55.328125 
Q 55.078125 49.078125 51.53125 44.71875 
Q 48 40.375 41.703125 38.8125 
Q 48.828125 37.15625 52.796875 32.3125 
Q 56.78125 27.484375 56.78125 20.515625 
Q 56.78125 9.90625 50.3125 4.234375 
Q 43.84375 -1.421875 31.78125 -1.421875 
Q 19.734375 -1.421875 13.25 4.234375 
Q 6.78125 9.90625 6.78125 20.515625 
Q 6.78125 27.484375 10.78125 32.3125 
Q 14.796875 37.15625 21.921875 38.8125 
z
M 18.3125 54.390625 
Q 18.3125 48.734375 21.84375 45.5625 
Q 25.390625 42.390625 31.78125 42.390625 
Q 38.140625 42.390625 41.71875 45.5625 
Q 45.3125 48.734375 45.3125 54.390625 
Q 45.3125 60.0625 41.71875 63.234375 
Q 38.140625 66.40625 31.78125 66.40625 
Q 25.390625 66.40625 21.84375 63.234375 
Q 18.3125 60.0625 18.3125 54.390625 
z
" id="DejaVuSans-56"/>
       </defs>
       <use xlink:href="#DejaVuSans-48"/>
       <use x="63.623047" xlink:href="#DejaVuSans-46"/>
       <use x="95.410156" xlink:href="#DejaVuSans-56"/>
      </g>
     </g>
    </g>
    <g id="ytick_6">
     <g id="line2d_25">
      <path clip-path="url(#p9f4c75de58)" d="M 87.84 80.517026 
L 335.389091 80.517026 
" style="fill:none;stroke:#b0b0b0;stroke-linecap:square;stroke-width:0.8;"/>
     </g>
     <g id="line2d_26">
      <g>
       <use style="stroke:#000000;stroke-width:0.8;" x="87.84" xlink:href="#m64c8374b6d" y="80.517026"/>
      </g>
     </g>
     <g id="text_15">
      <!-- 1.0 -->
      <g transform="translate(64.936875 84.316245)scale(0.1 -0.1)">
       <use xlink:href="#DejaVuSans-49"/>
       <use x="63.623047" xlink:href="#DejaVuSans-46"/>
       <use x="95.410156" xlink:href="#DejaVuSans-48"/>
      </g>
     </g>
    </g>
    <g id="text_16">
     <!-- pos_z_e1, pos_z_e2 -->
     <g transform="translate(58.579062 211.74195)rotate(-90)scale(0.1 -0.1)">
      <defs>
       <path d="M 18.109375 8.203125 
L 18.109375 -20.796875 
L 9.078125 -20.796875 
L 9.078125 54.6875 
L 18.109375 54.6875 
L 18.109375 46.390625 
Q 20.953125 51.265625 25.265625 53.625 
Q 29.59375 56 35.59375 56 
Q 45.5625 56 51.78125 48.09375 
Q 58.015625 40.1875 58.015625 27.296875 
Q 58.015625 14.40625 51.78125 6.484375 
Q 45.5625 -1.421875 35.59375 -1.421875 
Q 29.59375 -1.421875 25.265625 0.953125 
Q 20.953125 3.328125 18.109375 8.203125 
z
M 48.6875 27.296875 
Q 48.6875 37.203125 44.609375 42.84375 
Q 40.53125 48.484375 33.40625 48.484375 
Q 26.265625 48.484375 22.1875 42.84375 
Q 18.109375 37.203125 18.109375 27.296875 
Q 18.109375 17.390625 22.1875 11.75 
Q 26.265625 6.109375 33.40625 6.109375 
Q 40.53125 6.109375 44.609375 11.75 
Q 48.6875 17.390625 48.6875 27.296875 
z
" id="DejaVuSans-112"/>
       <path d="M 30.609375 48.390625 
Q 23.390625 48.390625 19.1875 42.75 
Q 14.984375 37.109375 14.984375 27.296875 
Q 14.984375 17.484375 19.15625 11.84375 
Q 23.34375 6.203125 30.609375 6.203125 
Q 37.796875 6.203125 41.984375 11.859375 
Q 46.1875 17.53125 46.1875 27.296875 
Q 46.1875 37.015625 41.984375 42.703125 
Q 37.796875 48.390625 30.609375 48.390625 
z
M 30.609375 56 
Q 42.328125 56 49.015625 48.375 
Q 55.71875 40.765625 55.71875 27.296875 
Q 55.71875 13.875 49.015625 6.21875 
Q 42.328125 -1.421875 30.609375 -1.421875 
Q 18.84375 -1.421875 12.171875 6.21875 
Q 5.515625 13.875 5.515625 27.296875 
Q 5.515625 40.765625 12.171875 48.375 
Q 18.84375 56 30.609375 56 
z
" id="DejaVuSans-111"/>
       <path d="M 44.28125 53.078125 
L 44.28125 44.578125 
Q 40.484375 46.53125 36.375 47.5 
Q 32.28125 48.484375 27.875 48.484375 
Q 21.1875 48.484375 17.84375 46.4375 
Q 14.5 44.390625 14.5 40.28125 
Q 14.5 37.15625 16.890625 35.375 
Q 19.28125 33.59375 26.515625 31.984375 
L 29.59375 31.296875 
Q 39.15625 29.25 43.1875 25.515625 
Q 47.21875 21.78125 47.21875 15.09375 
Q 47.21875 7.46875 41.1875 3.015625 
Q 35.15625 -1.421875 24.609375 -1.421875 
Q 20.21875 -1.421875 15.453125 -0.5625 
Q 10.6875 0.296875 5.421875 2 
L 5.421875 11.28125 
Q 10.40625 8.6875 15.234375 7.390625 
Q 20.0625 6.109375 24.8125 6.109375 
Q 31.15625 6.109375 34.5625 8.28125 
Q 37.984375 10.453125 37.984375 14.40625 
Q 37.984375 18.0625 35.515625 20.015625 
Q 33.0625 21.96875 24.703125 23.78125 
L 21.578125 24.515625 
Q 13.234375 26.265625 9.515625 29.90625 
Q 5.8125 33.546875 5.8125 39.890625 
Q 5.8125 47.609375 11.28125 51.796875 
Q 16.75 56 26.8125 56 
Q 31.78125 56 36.171875 55.265625 
Q 40.578125 54.546875 44.28125 53.078125 
z
" id="DejaVuSans-115"/>
       <path d="M 50.984375 -16.609375 
L 50.984375 -23.578125 
L -0.984375 -23.578125 
L -0.984375 -16.609375 
z
" id="DejaVuSans-95"/>
       <path d="M 5.515625 54.6875 
L 48.1875 54.6875 
L 48.1875 46.484375 
L 14.40625 7.171875 
L 48.1875 7.171875 
L 48.1875 0 
L 4.296875 0 
L 4.296875 8.203125 
L 38.09375 47.515625 
L 5.515625 47.515625 
z
" id="DejaVuSans-122"/>
       <path d="M 11.71875 12.40625 
L 22.015625 12.40625 
L 22.015625 4 
L 14.015625 -11.625 
L 7.71875 -11.625 
L 11.71875 4 
z
" id="DejaVuSans-44"/>
       <path id="DejaVuSans-32"/>
      </defs>
      <use xlink:href="#DejaVuSans-112"/>
      <use x="63.476562" xlink:href="#DejaVuSans-111"/>
      <use x="124.658203" xlink:href="#DejaVuSans-115"/>
      <use x="176.757812" xlink:href="#DejaVuSans-95"/>
      <use x="226.757812" xlink:href="#DejaVuSans-122"/>
      <use x="279.248047" xlink:href="#DejaVuSans-95"/>
      <use x="329.248047" xlink:href="#DejaVuSans-101"/>
      <use x="390.771484" xlink:href="#DejaVuSans-49"/>
      <use x="454.394531" xlink:href="#DejaVuSans-44"/>
      <use x="486.181641" xlink:href="#DejaVuSans-32"/>
      <use x="517.96875" xlink:href="#DejaVuSans-112"/>
      <use x="581.445312" xlink:href="#DejaVuSans-111"/>
      <use x="642.626953" xlink:href="#DejaVuSans-115"/>
      <use x="694.726562" xlink:href="#DejaVuSans-95"/>
      <use x="744.726562" xlink:href="#DejaVuSans-122"/>
      <use x="797.216797" xlink:href="#DejaVuSans-95"/>
      <use x="847.216797" xlink:href="#DejaVuSans-101"/>
      <use x="908.740234" xlink:href="#DejaVuSans-50"/>
     </g>
    </g>
    <g id="text_17">
     <!-- 1e−3 -->
     <g transform="translate(87.84 63.3552)scale(0.1 -0.1)">
      <defs>
       <path d="M 10.59375 35.5 
L 73.1875 35.5 
L 73.1875 27.203125 
L 10.59375 27.203125 
z
" id="DejaVuSans-8722"/>
       <path d="M 40.578125 39.3125 
Q 47.65625 37.796875 51.625 33 
Q 55.609375 28.21875 55.609375 21.1875 
Q 55.609375 10.40625 48.1875 4.484375 
Q 40.765625 -1.421875 27.09375 -1.421875 
Q 22.515625 -1.421875 17.65625 -0.515625 
Q 12.796875 0.390625 7.625 2.203125 
L 7.625 11.71875 
Q 11.71875 9.328125 16.59375 8.109375 
Q 21.484375 6.890625 26.8125 6.890625 
Q 36.078125 6.890625 40.9375 10.546875 
Q 45.796875 14.203125 45.796875 21.1875 
Q 45.796875 27.640625 41.28125 31.265625 
Q 36.765625 34.90625 28.71875 34.90625 
L 20.21875 34.90625 
L 20.21875 43.015625 
L 29.109375 43.015625 
Q 36.375 43.015625 40.234375 45.921875 
Q 44.09375 48.828125 44.09375 54.296875 
Q 44.09375 59.90625 40.109375 62.90625 
Q 36.140625 65.921875 28.71875 65.921875 
Q 24.65625 65.921875 20.015625 65.03125 
Q 15.375 64.15625 9.8125 62.3125 
L 9.8125 71.09375 
Q 15.4375 72.65625 20.34375 73.4375 
Q 25.25 74.21875 29.59375 74.21875 
Q 40.828125 74.21875 47.359375 69.109375 
Q 53.90625 64.015625 53.90625 55.328125 
Q 53.90625 49.265625 50.4375 45.09375 
Q 46.96875 40.921875 40.578125 39.3125 
z
" id="DejaVuSans-51"/>
      </defs>
      <use xlink:href="#DejaVuSans-49"/>
      <use x="63.623047" xlink:href="#DejaVuSans-101"/>
      <use x="125.146484" xlink:href="#DejaVuSans-8722"/>
      <use x="208.935547" xlink:href="#DejaVuSans-51"/>
     </g>
    </g>
   </g>
   <g id="line2d_27">
    <path clip-path="url(#p9f4c75de58)" d="M 99.092231 251.050524 
L 210.764251 251.0505 
L 212.748272 203.561303 
L 214.165429 171.591076 
L 215.582587 141.16201 
L 216.858029 118.692705 
L 217.991755 102.63047 
L 218.983765 91.595135 
L 219.83406 84.379052 
L 220.542638 79.947094 
L 221.109501 77.436654 
L 221.676364 75.846328 
L 222.101512 75.257407 
L 222.384943 75.152291 
L 222.668375 75.254551 
L 223.093522 75.760827 
L 223.518669 76.690563 
L 224.085532 78.588928 
L 224.794111 82.020538 
L 225.50269 86.628429 
L 226.352985 93.710588 
L 227.344995 104.113938 
L 228.478721 118.826556 
L 229.612447 136.550452 
L 230.887889 160.089254 
L 232.305047 190.713346 
L 233.86392 229.834265 
L 234.572499 249.49855 
L 234.714214 249.193534 
L 236.131372 215.53339 
L 237.406814 190.156115 
L 238.54054 171.509018 
L 239.674266 156.542372 
L 240.666276 146.465678 
L 241.516571 140.071287 
L 242.22515 136.324072 
L 242.792013 134.361427 
L 243.21716 133.493268 
L 243.642307 133.142672 
L 243.925739 133.185257 
L 244.20917 133.417542 
L 244.634318 134.118855 
L 245.059465 135.243629 
L 245.626328 137.402045 
L 246.334907 141.158718 
L 247.185201 147.219415 
L 248.035496 154.973958 
L 249.027506 166.161755 
L 250.161232 181.770882 
L 251.436674 202.930571 
L 252.712116 227.901408 
L 253.704126 249.95804 
L 253.845842 249.373473 
L 255.121284 224.924844 
L 256.25501 207.10321 
L 257.24702 194.528401 
L 258.239031 184.771439 
L 259.089325 178.651103 
L 259.797904 175.132267 
L 260.364767 173.352326 
L 260.789914 172.621194 
L 261.073346 172.421309 
L 261.356777 172.443085 
L 261.640209 172.655891 
L 262.065356 173.327984 
L 262.490504 174.423538 
L 263.057367 176.542994 
L 263.765945 180.250966 
L 264.474524 185.13522 
L 265.324819 192.549014 
L 266.316829 203.339273 
L 267.450555 218.49407 
L 268.584281 236.660147 
L 269.434576 250.233796 
L 270.568302 232.529213 
L 271.560312 220.056823 
L 272.552323 210.402279 
L 273.402617 204.369731 
L 274.111196 200.924052 
L 274.678059 199.202636 
L 275.103206 198.515398 
L 275.386638 198.344775 
L 275.670069 198.392181 
L 275.953501 198.629021 
L 276.378648 199.337166 
L 276.803795 200.468772 
L 277.370658 202.636298 
L 278.079237 206.404357 
L 278.929532 212.478719 
L 279.779826 220.246925 
L 280.771837 231.450664 
L 281.905563 247.07801 
L 282.188994 250.908252 
L 283.181005 238.267814 
L 284.173015 228.445222 
L 285.02331 222.268632 
L 285.731888 218.702918 
L 286.298751 216.885475 
L 286.723899 216.126216 
L 287.00733 215.907579 
L 287.290762 215.912702 
L 287.574193 216.110311 
L 287.999341 216.759609 
L 288.424488 217.832369 
L 288.991351 219.921432 
L 289.69993 223.591414 
L 290.408508 228.437676 
L 291.258803 235.805882 
L 292.250813 246.542954 
L 292.675961 250.517656 
L 293.667971 240.538127 
L 294.518266 234.22702 
L 295.226844 230.549208 
L 295.793707 228.642086 
L 296.218855 227.815569 
L 296.502286 227.552092 
L 296.785718 227.516046 
L 297.069149 227.676972 
L 297.494296 228.271245 
L 297.919444 229.288979 
L 298.486307 231.304675 
L 299.194886 234.882948 
L 299.903464 239.637501 
L 300.753759 246.895656 
L 301.178906 251.094109 
L 302.029201 244.085583 
L 302.73778 239.819357 
L 303.304643 237.441503 
L 303.871506 235.983761 
L 304.296653 235.49428 
L 304.580085 235.453182 
L 304.863516 235.609607 
L 305.288663 236.197128 
L 305.713811 237.20811 
L 306.280674 239.214803 
L 306.989252 242.781823 
L 307.697831 247.525123 
L 308.122979 250.935718 
L 308.548126 248.221222 
L 309.256705 244.276822 
L 309.823568 242.156428 
L 310.248715 241.169958 
L 310.673862 240.70105 
L 310.957294 240.672759 
L 311.240725 240.840391 
L 311.665873 241.444722 
L 312.09102 242.472515 
L 312.657883 244.501622 
L 313.366462 248.096659 
L 313.791609 250.818296 
L 313.933325 250.482485 
L 314.641904 246.936011 
L 315.208767 245.133959 
L 315.633914 244.386244 
L 315.917345 244.175303 
L 316.200777 244.187294 
L 316.484208 244.391135 
L 316.909356 245.049782 
L 317.334503 246.131889 
L 317.901366 248.233417 
L 318.468229 251.077209 
L 319.176808 248.159631 
L 319.601955 247.086483 
L 320.027102 246.530899 
L 320.310534 246.447649 
L 320.593965 246.568161 
L 321.019113 247.101812 
L 321.44426 248.058925 
L 322.011123 249.993792 
L 322.294555 250.944447 
L 322.861418 249.059668 
L 323.286565 248.249907 
L 323.569996 247.997603 
L 323.853428 247.971938 
L 324.13686 248.141944 
L 324.13686 248.141944 
" style="fill:none;stroke:#1f77b4;stroke-linecap:square;stroke-width:1.5;"/>
   </g>
   <g id="line2d_28"/>
   <g id="line2d_29">
    <path clip-path="url(#p9f4c75de58)" d="M 99.092231 251.050524 
L 210.764251 251.0505 
L 211.614545 237.138561 
L 212.606556 226.389009 
L 213.315135 220.435969 
L 213.45685 219.779127 
L 213.881998 220.264301 
L 214.307145 221.172935 
L 214.874008 223.043164 
L 215.582587 226.439604 
L 216.291166 231.012325 
L 217.14146 238.05228 
L 218.13347 248.406393 
L 218.416902 250.563561 
L 219.267197 242.386755 
L 220.117491 236.280203 
L 220.82607 232.772854 
L 221.392933 231.002102 
L 221.81808 230.277862 
L 222.101512 230.082571 
L 222.384943 230.108405 
L 222.668375 230.324969 
L 223.093522 231.002699 
L 223.518669 232.10389 
L 224.085532 234.230862 
L 224.794111 237.94823 
L 225.50269 242.841878 
L 226.4947 250.639882 
L 227.344995 244.161625 
L 228.053574 240.344521 
L 228.620437 238.325965 
L 229.045584 237.415872 
L 229.470731 237.023343 
L 229.754163 237.041347 
L 230.037594 237.250696 
L 230.462742 237.917604 
L 230.887889 239.007972 
L 231.454752 241.120515 
L 232.163331 244.819845 
L 232.87191 249.695457 
L 233.013625 250.811733 
L 233.155341 250.357258 
L 233.86392 246.082465 
L 234.430783 243.697757 
L 234.997646 242.233163 
L 235.422793 241.738541 
L 235.706225 241.694221 
L 235.989656 241.847846 
L 236.414804 242.431168 
L 236.839951 243.437952 
L 237.406814 245.439046 
L 238.115393 248.999068 
L 238.398824 250.752435 
L 238.54054 250.574752 
L 239.249119 247.194615 
L 239.815982 245.525633 
L 240.241129 244.87772 
L 240.524561 244.733314 
L 240.807992 244.803017 
L 241.091424 245.061264 
L 241.516571 245.80152 
L 242.083434 247.447244 
L 242.650297 249.845789 
L 242.933729 250.883022 
L 243.500592 248.616285 
L 244.067455 247.269662 
L 244.492602 246.863518 
L 244.776033 246.873438 
L 245.059465 247.075383 
L 245.484612 247.731186 
L 245.90976 248.81045 
L 246.476623 250.908186 
L 246.618338 250.687204 
L 247.185201 249.026108 
L 247.610349 248.38411 
L 247.89378 248.243647 
L 248.177212 248.31674 
L 248.460643 248.578304 
L 248.885791 249.323533 
L 249.452654 250.975889 
L 249.877801 249.997744 
L 250.302948 249.341023 
L 250.58638 249.190745 
L 250.869811 249.255475 
L 251.153243 249.508897 
L 251.57839 250.241913 
L 251.861822 250.965846 
L 252.145253 250.495997 
L 252.5704 249.911863 
L 252.853832 249.809907 
L 253.137263 249.914731 
L 253.562411 250.424852 
L 253.845842 251.000189 
L 254.554421 250.2359 
L 254.837852 250.269832 
L 255.121284 250.493946 
L 255.546431 250.966528 
L 255.971579 250.527635 
L 256.25501 250.517806 
L 256.538442 250.701892 
L 256.821873 251.052099 
L 257.24702 250.690645 
L 257.530452 250.726892 
L 257.955599 250.998062 
L 258.239031 250.811839 
L 258.522462 250.845616 
L 258.805894 251.048888 
L 259.089325 250.888742 
L 259.372757 250.945157 
L 259.514473 251.04435 
L 259.93962 250.956784 
L 260.223051 251.00631 
L 260.506483 250.998296 
L 260.789914 251.002841 
L 262.490504 251.049832 
L 324.13686 251.0505 
L 324.13686 251.0505 
" style="fill:none;stroke:#ff7f0e;stroke-linecap:square;stroke-width:1.5;"/>
   </g>
   <g id="line2d_30"/>
   <g id="patch_3">
    <path d="M 87.84 259.8912 
L 87.84 66.3552 
" style="fill:none;stroke:#000000;stroke-linecap:square;stroke-linejoin:miter;stroke-width:0.8;"/>
   </g>
   <g id="patch_4">
    <path d="M 335.389091 259.8912 
L 335.389091 66.3552 
" style="fill:none;stroke:#000000;stroke-linecap:square;stroke-linejoin:miter;stroke-width:0.8;"/>
   </g>
   <g id="patch_5">
    <path d="M 87.84 259.8912 
L 335.389091 259.8912 
" style="fill:none;stroke:#000000;stroke-linecap:square;stroke-linejoin:miter;stroke-width:0.8;"/>
   </g>
   <g id="patch_6">
    <path d="M 87.84 66.3552 
L 335.389091 66.3552 
" style="fill:none;stroke:#000000;stroke-linecap:square;stroke-linejoin:miter;stroke-width:0.8;"/>
   </g>
   <g id="legend_1">
    <g id="patch_7">
     <path d="M 250.948466 104.2677 
L 328.389091 104.2677 
Q 330.389091 104.2677 330.389091 102.2677 
L 330.389091 73.3552 
Q 330.389091 71.3552 328.389091 71.3552 
L 250.948466 71.3552 
Q 248.948466 71.3552 248.948466 73.3552 
L 248.948466 102.2677 
Q 248.948466 104.2677 250.948466 104.2677 
z
" style="fill:#ffffff;opacity:0.8;stroke:#cccccc;stroke-linejoin:miter;"/>
    </g>
    <g id="line2d_31">
     <path d="M 252.948466 79.453638 
L 272.948466 79.453638 
" style="fill:none;stroke:#1f77b4;stroke-linecap:square;stroke-width:1.5;"/>
    </g>
    <g id="line2d_32"/>
    <g id="text_18">
     <!-- pos_z_e1 -->
     <g transform="translate(280.948466 82.953638)scale(0.1 -0.1)">
      <use xlink:href="#DejaVuSans-112"/>
      <use x="63.476562" xlink:href="#DejaVuSans-111"/>
      <use x="124.658203" xlink:href="#DejaVuSans-115"/>
      <use x="176.757812" xlink:href="#DejaVuSans-95"/>
      <use x="226.757812" xlink:href="#DejaVuSans-122"/>
      <use x="279.248047" xlink:href="#DejaVuSans-95"/>
      <use x="329.248047" xlink:href="#DejaVuSans-101"/>
      <use x="390.771484" xlink:href="#DejaVuSans-49"/>
     </g>
    </g>
    <g id="line2d_33">
     <path d="M 252.948466 94.409888 
L 272.948466 94.409888 
" style="fill:none;stroke:#ff7f0e;stroke-linecap:square;stroke-width:1.5;"/>
    </g>
    <g id="line2d_34"/>
    <g id="text_19">
     <!-- pos_z_e2 -->
     <g transform="translate(280.948466 97.909888)scale(0.1 -0.1)">
      <use xlink:href="#DejaVuSans-112"/>
      <use x="63.476562" xlink:href="#DejaVuSans-111"/>
      <use x="124.658203" xlink:href="#DejaVuSans-115"/>
      <use x="176.757812" xlink:href="#DejaVuSans-95"/>
      <use x="226.757812" xlink:href="#DejaVuSans-122"/>
      <use x="279.248047" xlink:href="#DejaVuSans-95"/>
      <use x="329.248047" xlink:href="#DejaVuSans-101"/>
      <use x="390.771484" xlink:href="#DejaVuSans-50"/>
     </g>
    </g>
   </g>
  </g>
  <g id="axes_2">
   <g id="patch_8">
    <path d="M 384.898909 259.8912 
L 632.448 259.8912 
L 632.448 66.3552 
L 384.898909 66.3552 
z
" style="fill:#ffffff;"/>
   </g>
   <g id="PathCollection_3">
    <g clip-path="url(#pa9ce80ea1c)">
     <use style="fill:#1f77b4;stroke:#1f77b4;" x="621.195769" xlink:href="#mcaf79cc9b2" y="162.725783"/>
    </g>
   </g>
   <g id="PathCollection_4">
    <g clip-path="url(#pa9ce80ea1c)">
     <use style="fill:#ff7f0e;stroke:#ff7f0e;" x="621.195769" xlink:href="#m7004dfc307" y="159.753005"/>
    </g>
   </g>
   <g id="matplotlib.axis_3">
    <g id="xtick_8">
     <g id="line2d_35">
      <path clip-path="url(#pa9ce80ea1c)" d="M 396.009425 259.8912 
L 396.009425 66.3552 
" style="fill:none;stroke:#b0b0b0;stroke-linecap:square;stroke-width:0.8;"/>
     </g>
     <g id="line2d_36">
      <g>
       <use style="stroke:#000000;stroke-width:0.8;" x="396.009425" xlink:href="#md0cb480c53" y="259.8912"/>
      </g>
     </g>
     <g id="text_20">
      <!-- 0.00 -->
      <g transform="translate(384.876612 274.489638)scale(0.1 -0.1)">
       <use xlink:href="#DejaVuSans-48"/>
       <use x="63.623047" xlink:href="#DejaVuSans-46"/>
       <use x="95.410156" xlink:href="#DejaVuSans-48"/>
       <use x="159.033203" xlink:href="#DejaVuSans-48"/>
      </g>
     </g>
    </g>
    <g id="xtick_9">
     <g id="line2d_37">
      <path clip-path="url(#pa9ce80ea1c)" d="M 431.438365 259.8912 
L 431.438365 66.3552 
" style="fill:none;stroke:#b0b0b0;stroke-linecap:square;stroke-width:0.8;"/>
     </g>
     <g id="line2d_38">
      <g>
       <use style="stroke:#000000;stroke-width:0.8;" x="431.438365" xlink:href="#md0cb480c53" y="259.8912"/>
      </g>
     </g>
     <g id="text_21">
      <!-- 0.25 -->
      <g transform="translate(420.305552 274.489638)scale(0.1 -0.1)">
       <use xlink:href="#DejaVuSans-48"/>
       <use x="63.623047" xlink:href="#DejaVuSans-46"/>
       <use x="95.410156" xlink:href="#DejaVuSans-50"/>
       <use x="159.033203" xlink:href="#DejaVuSans-53"/>
      </g>
     </g>
    </g>
    <g id="xtick_10">
     <g id="line2d_39">
      <path clip-path="url(#pa9ce80ea1c)" d="M 466.867305 259.8912 
L 466.867305 66.3552 
" style="fill:none;stroke:#b0b0b0;stroke-linecap:square;stroke-width:0.8;"/>
     </g>
     <g id="line2d_40">
      <g>
       <use style="stroke:#000000;stroke-width:0.8;" x="466.867305" xlink:href="#md0cb480c53" y="259.8912"/>
      </g>
     </g>
     <g id="text_22">
      <!-- 0.50 -->
      <g transform="translate(455.734493 274.489638)scale(0.1 -0.1)">
       <use xlink:href="#DejaVuSans-48"/>
       <use x="63.623047" xlink:href="#DejaVuSans-46"/>
       <use x="95.410156" xlink:href="#DejaVuSans-53"/>
       <use x="159.033203" xlink:href="#DejaVuSans-48"/>
      </g>
     </g>
    </g>
    <g id="xtick_11">
     <g id="line2d_41">
      <path clip-path="url(#pa9ce80ea1c)" d="M 502.296245 259.8912 
L 502.296245 66.3552 
" style="fill:none;stroke:#b0b0b0;stroke-linecap:square;stroke-width:0.8;"/>
     </g>
     <g id="line2d_42">
      <g>
       <use style="stroke:#000000;stroke-width:0.8;" x="502.296245" xlink:href="#md0cb480c53" y="259.8912"/>
      </g>
     </g>
     <g id="text_23">
      <!-- 0.75 -->
      <g transform="translate(491.163433 274.489638)scale(0.1 -0.1)">
       <use xlink:href="#DejaVuSans-48"/>
       <use x="63.623047" xlink:href="#DejaVuSans-46"/>
       <use x="95.410156" xlink:href="#DejaVuSans-55"/>
       <use x="159.033203" xlink:href="#DejaVuSans-53"/>
      </g>
     </g>
    </g>
    <g id="xtick_12">
     <g id="line2d_43">
      <path clip-path="url(#pa9ce80ea1c)" d="M 537.725186 259.8912 
L 537.725186 66.3552 
" style="fill:none;stroke:#b0b0b0;stroke-linecap:square;stroke-width:0.8;"/>
     </g>
     <g id="line2d_44">
      <g>
       <use style="stroke:#000000;stroke-width:0.8;" x="537.725186" xlink:href="#md0cb480c53" y="259.8912"/>
      </g>
     </g>
     <g id="text_24">
      <!-- 1.00 -->
      <g transform="translate(526.592373 274.489638)scale(0.1 -0.1)">
       <use xlink:href="#DejaVuSans-49"/>
       <use x="63.623047" xlink:href="#DejaVuSans-46"/>
       <use x="95.410156" xlink:href="#DejaVuSans-48"/>
       <use x="159.033203" xlink:href="#DejaVuSans-48"/>
      </g>
     </g>
    </g>
    <g id="xtick_13">
     <g id="line2d_45">
      <path clip-path="url(#pa9ce80ea1c)" d="M 573.154126 259.8912 
L 573.154126 66.3552 
" style="fill:none;stroke:#b0b0b0;stroke-linecap:square;stroke-width:0.8;"/>
     </g>
     <g id="line2d_46">
      <g>
       <use style="stroke:#000000;stroke-width:0.8;" x="573.154126" xlink:href="#md0cb480c53" y="259.8912"/>
      </g>
     </g>
     <g id="text_25">
      <!-- 1.25 -->
      <g transform="translate(562.021313 274.489638)scale(0.1 -0.1)">
       <use xlink:href="#DejaVuSans-49"/>
       <use x="63.623047" xlink:href="#DejaVuSans-46"/>
       <use x="95.410156" xlink:href="#DejaVuSans-50"/>
       <use x="159.033203" xlink:href="#DejaVuSans-53"/>
      </g>
     </g>
    </g>
    <g id="xtick_14">
     <g id="line2d_47">
      <path clip-path="url(#pa9ce80ea1c)" d="M 608.583066 259.8912 
L 608.583066 66.3552 
" style="fill:none;stroke:#b0b0b0;stroke-linecap:square;stroke-width:0.8;"/>
     </g>
     <g id="line2d_48">
      <g>
       <use style="stroke:#000000;stroke-width:0.8;" x="608.583066" xlink:href="#md0cb480c53" y="259.8912"/>
      </g>
     </g>
     <g id="text_26">
      <!-- 1.50 -->
      <g transform="translate(597.450253 274.489638)scale(0.1 -0.1)">
       <use xlink:href="#DejaVuSans-49"/>
       <use x="63.623047" xlink:href="#DejaVuSans-46"/>
       <use x="95.410156" xlink:href="#DejaVuSans-53"/>
       <use x="159.033203" xlink:href="#DejaVuSans-48"/>
      </g>
     </g>
    </g>
    <g id="text_27">
     <!-- i -->
     <g transform="translate(507.284392 288.167763)scale(0.1 -0.1)">
      <use xlink:href="#DejaVuSans-105"/>
     </g>
    </g>
    <g id="text_28">
     <!-- 1e5 -->
     <g transform="translate(613.569875 287.167763)scale(0.1 -0.1)">
      <use xlink:href="#DejaVuSans-49"/>
      <use x="63.623047" xlink:href="#DejaVuSans-101"/>
      <use x="125.146484" xlink:href="#DejaVuSans-53"/>
     </g>
    </g>
   </g>
   <g id="matplotlib.axis_4">
    <g id="ytick_7">
     <g id="line2d_49">
      <path clip-path="url(#pa9ce80ea1c)" d="M 384.898909 227.738916 
L 632.448 227.738916 
" style="fill:none;stroke:#b0b0b0;stroke-linecap:square;stroke-width:0.8;"/>
     </g>
     <g id="line2d_50">
      <g>
       <use style="stroke:#000000;stroke-width:0.8;" x="384.898909" xlink:href="#m64c8374b6d" y="227.738916"/>
      </g>
     </g>
     <g id="text_29">
      <!-- −1.0 -->
      <g transform="translate(353.616097 231.538135)scale(0.1 -0.1)">
       <use xlink:href="#DejaVuSans-8722"/>
       <use x="83.789062" xlink:href="#DejaVuSans-49"/>
       <use x="147.412109" xlink:href="#DejaVuSans-46"/>
       <use x="179.199219" xlink:href="#DejaVuSans-48"/>
      </g>
     </g>
    </g>
    <g id="ytick_8">
     <g id="line2d_51">
      <path clip-path="url(#pa9ce80ea1c)" d="M 384.898909 193.745961 
L 632.448 193.745961 
" style="fill:none;stroke:#b0b0b0;stroke-linecap:square;stroke-width:0.8;"/>
     </g>
     <g id="line2d_52">
      <g>
       <use style="stroke:#000000;stroke-width:0.8;" x="384.898909" xlink:href="#m64c8374b6d" y="193.745961"/>
      </g>
     </g>
     <g id="text_30">
      <!-- −0.5 -->
      <g transform="translate(353.616097 197.54518)scale(0.1 -0.1)">
       <use xlink:href="#DejaVuSans-8722"/>
       <use x="83.789062" xlink:href="#DejaVuSans-48"/>
       <use x="147.412109" xlink:href="#DejaVuSans-46"/>
       <use x="179.199219" xlink:href="#DejaVuSans-53"/>
      </g>
     </g>
    </g>
    <g id="ytick_9">
     <g id="line2d_53">
      <path clip-path="url(#pa9ce80ea1c)" d="M 384.898909 159.753005 
L 632.448 159.753005 
" style="fill:none;stroke:#b0b0b0;stroke-linecap:square;stroke-width:0.8;"/>
     </g>
     <g id="line2d_54">
      <g>
       <use style="stroke:#000000;stroke-width:0.8;" x="384.898909" xlink:href="#m64c8374b6d" y="159.753005"/>
      </g>
     </g>
     <g id="text_31">
      <!-- 0.0 -->
      <g transform="translate(361.995784 163.552224)scale(0.1 -0.1)">
       <use xlink:href="#DejaVuSans-48"/>
       <use x="63.623047" xlink:href="#DejaVuSans-46"/>
       <use x="95.410156" xlink:href="#DejaVuSans-48"/>
      </g>
     </g>
    </g>
    <g id="ytick_10">
     <g id="line2d_55">
      <path clip-path="url(#pa9ce80ea1c)" d="M 384.898909 125.760049 
L 632.448 125.760049 
" style="fill:none;stroke:#b0b0b0;stroke-linecap:square;stroke-width:0.8;"/>
     </g>
     <g id="line2d_56">
      <g>
       <use style="stroke:#000000;stroke-width:0.8;" x="384.898909" xlink:href="#m64c8374b6d" y="125.760049"/>
      </g>
     </g>
     <g id="text_32">
      <!-- 0.5 -->
      <g transform="translate(361.995784 129.559268)scale(0.1 -0.1)">
       <use xlink:href="#DejaVuSans-48"/>
       <use x="63.623047" xlink:href="#DejaVuSans-46"/>
       <use x="95.410156" xlink:href="#DejaVuSans-53"/>
      </g>
     </g>
    </g>
    <g id="ytick_11">
     <g id="line2d_57">
      <path clip-path="url(#pa9ce80ea1c)" d="M 384.898909 91.767094 
L 632.448 91.767094 
" style="fill:none;stroke:#b0b0b0;stroke-linecap:square;stroke-width:0.8;"/>
     </g>
     <g id="line2d_58">
      <g>
       <use style="stroke:#000000;stroke-width:0.8;" x="384.898909" xlink:href="#m64c8374b6d" y="91.767094"/>
      </g>
     </g>
     <g id="text_33">
      <!-- 1.0 -->
      <g transform="translate(361.995784 95.566312)scale(0.1 -0.1)">
       <use xlink:href="#DejaVuSans-49"/>
       <use x="63.623047" xlink:href="#DejaVuSans-46"/>
       <use x="95.410156" xlink:href="#DejaVuSans-48"/>
      </g>
     </g>
    </g>
    <g id="text_34">
     <!-- vel_z_e1, vel_z_e2 -->
     <g transform="translate(347.258284 208.915388)rotate(-90)scale(0.1 -0.1)">
      <defs>
       <path d="M 2.984375 54.6875 
L 12.5 54.6875 
L 29.59375 8.796875 
L 46.6875 54.6875 
L 56.203125 54.6875 
L 35.6875 0 
L 23.484375 0 
z
" id="DejaVuSans-118"/>
       <path d="M 9.421875 75.984375 
L 18.40625 75.984375 
L 18.40625 0 
L 9.421875 0 
z
" id="DejaVuSans-108"/>
      </defs>
      <use xlink:href="#DejaVuSans-118"/>
      <use x="59.179688" xlink:href="#DejaVuSans-101"/>
      <use x="120.703125" xlink:href="#DejaVuSans-108"/>
      <use x="148.486328" xlink:href="#DejaVuSans-95"/>
      <use x="198.486328" xlink:href="#DejaVuSans-122"/>
      <use x="250.976562" xlink:href="#DejaVuSans-95"/>
      <use x="300.976562" xlink:href="#DejaVuSans-101"/>
      <use x="362.5" xlink:href="#DejaVuSans-49"/>
      <use x="426.123047" xlink:href="#DejaVuSans-44"/>
      <use x="457.910156" xlink:href="#DejaVuSans-32"/>
      <use x="489.697266" xlink:href="#DejaVuSans-118"/>
      <use x="548.876953" xlink:href="#DejaVuSans-101"/>
      <use x="610.400391" xlink:href="#DejaVuSans-108"/>
      <use x="638.183594" xlink:href="#DejaVuSans-95"/>
      <use x="688.183594" xlink:href="#DejaVuSans-122"/>
      <use x="740.673828" xlink:href="#DejaVuSans-95"/>
      <use x="790.673828" xlink:href="#DejaVuSans-101"/>
      <use x="852.197266" xlink:href="#DejaVuSans-50"/>
     </g>
    </g>
    <g id="text_35">
     <!-- 1e−1 -->
     <g transform="translate(384.898909 63.3552)scale(0.1 -0.1)">
      <use xlink:href="#DejaVuSans-49"/>
      <use x="63.623047" xlink:href="#DejaVuSans-101"/>
      <use x="125.146484" xlink:href="#DejaVuSans-8722"/>
      <use x="208.935547" xlink:href="#DejaVuSans-49"/>
     </g>
    </g>
   </g>
   <g id="line2d_59">
    <path clip-path="url(#pa9ce80ea1c)" d="M 396.15114 159.748232 
L 398.560308 159.753005 
L 507.82316 159.753005 
L 507.964876 75.152291 
L 510.374044 97.199547 
L 510.515759 78.154017 
L 520.010715 164.084082 
L 531.631408 251.094109 
L 531.773124 77.351787 
L 541.26808 163.428048 
L 550.763035 234.521607 
L 550.904751 92.64774 
L 558.840834 164.269489 
L 566.351769 220.507678 
L 566.493485 104.649781 
L 573.01241 163.479406 
L 579.106188 209.106616 
L 579.247903 114.483557 
L 584.774818 164.098136 
L 589.593154 200.175464 
L 589.73487 123.056233 
L 594.269774 163.684492 
L 598.0961 192.334135 
L 598.379531 130.777429 
L 602.064141 163.633735 
L 605.181888 186.977889 
L 605.323603 136.119684 
L 608.44135 163.760105 
L 610.850518 181.798769 
L 610.992234 140.508283 
L 613.684833 164.168408 
L 615.385422 176.901582 
L 615.527138 165.937493 
L 615.668854 144.546385 
L 617.936306 164.28988 
L 619.211748 173.839761 
L 619.353464 146.526355 
L 621.195769 162.725783 
L 621.195769 162.725783 
" style="fill:none;stroke:#1f77b4;stroke-linecap:square;stroke-width:1.5;"/>
   </g>
   <g id="line2d_60"/>
   <g id="line2d_61">
    <path clip-path="url(#pa9ce80ea1c)" d="M 396.15114 159.748232 
L 398.560308 159.753005 
L 507.82316 159.753005 
L 507.964876 91.22382 
L 508.106592 92.520718 
L 508.248307 116.68475 
L 510.374044 136.138211 
L 510.515759 161.803256 
L 515.334095 197.880584 
L 515.475811 125.121984 
L 519.869 164.311866 
L 523.411894 190.839313 
L 523.553609 131.506252 
L 527.238219 164.230511 
L 530.072534 185.452469 
L 530.21425 137.223278 
L 533.190281 163.602171 
L 535.457733 180.579737 
L 535.599449 141.258529 
L 538.150333 163.720793 
L 539.850922 176.453967 
L 539.992638 144.372884 
L 542.26009 164.147032 
L 543.535532 173.696914 
L 543.677247 147.787478 
L 545.519552 163.75818 
L 546.511563 171.185866 
L 546.653278 150.2706 
L 548.212152 163.666372 
L 548.920731 168.971861 
L 549.062446 152.113155 
L 550.479604 164.112994 
L 550.904751 167.296287 
L 551.046467 153.757725 
L 552.180193 163.335902 
L 552.463625 165.458098 
L 552.60534 154.501869 
L 553.739066 163.945641 
L 553.880782 155.355216 
L 554.731077 162.299478 
L 554.872793 163.360576 
L 555.014508 156.34977 
L 555.723087 162.273054 
L 555.864803 156.64382 
L 556.573382 162.515228 
L 556.715097 158.280735 
L 557.140245 161.73284 
L 557.28196 158.415296 
L 557.565392 160.780365 
L 557.707108 158.15716 
L 557.990539 160.569389 
L 558.132255 158.633937 
L 558.415687 160.95892 
L 558.557402 159.703303 
L 558.699118 160.773833 
L 558.98255 159.325467 
L 559.124265 160.369079 
L 559.407697 160.158688 
L 559.549413 159.464081 
L 559.691128 159.917688 
L 559.97456 159.841912 
L 560.257991 159.74675 
L 562.242012 159.753005 
L 621.195769 159.753005 
L 621.195769 159.753005 
" style="fill:none;stroke:#ff7f0e;stroke-linecap:square;stroke-width:1.5;"/>
   </g>
   <g id="line2d_62"/>
   <g id="patch_9">
    <path d="M 384.898909 259.8912 
L 384.898909 66.3552 
" style="fill:none;stroke:#000000;stroke-linecap:square;stroke-linejoin:miter;stroke-width:0.8;"/>
   </g>
   <g id="patch_10">
    <path d="M 632.448 259.8912 
L 632.448 66.3552 
" style="fill:none;stroke:#000000;stroke-linecap:square;stroke-linejoin:miter;stroke-width:0.8;"/>
   </g>
   <g id="patch_11">
    <path d="M 384.898909 259.8912 
L 632.448 259.8912 
" style="fill:none;stroke:#000000;stroke-linecap:square;stroke-linejoin:miter;stroke-width:0.8;"/>
   </g>
   <g id="patch_12">
    <path d="M 384.898909 66.3552 
L 632.448 66.3552 
" style="fill:none;stroke:#000000;stroke-linecap:square;stroke-linejoin:miter;stroke-width:0.8;"/>
   </g>
   <g id="legend_2">
    <g id="patch_13">
     <path d="M 391.898909 104.2677 
L 466.512972 104.2677 
Q 468.512972 104.2677 468.512972 102.2677 
L 468.512972 73.3552 
Q 468.512972 71.3552 466.512972 71.3552 
L 391.898909 71.3552 
Q 389.898909 71.3552 389.898909 73.3552 
L 389.898909 102.2677 
Q 389.898909 104.2677 391.898909 104.2677 
z
" style="fill:#ffffff;opacity:0.8;stroke:#cccccc;stroke-linejoin:miter;"/>
    </g>
    <g id="line2d_63">
     <path d="M 393.898909 79.453638 
L 413.898909 79.453638 
" style="fill:none;stroke:#1f77b4;stroke-linecap:square;stroke-width:1.5;"/>
    </g>
    <g id="line2d_64"/>
    <g id="text_36">
     <!-- vel_z_e1 -->
     <g transform="translate(421.898909 82.953638)scale(0.1 -0.1)">
      <use xlink:href="#DejaVuSans-118"/>
      <use x="59.179688" xlink:href="#DejaVuSans-101"/>
      <use x="120.703125" xlink:href="#DejaVuSans-108"/>
      <use x="148.486328" xlink:href="#DejaVuSans-95"/>
      <use x="198.486328" xlink:href="#DejaVuSans-122"/>
      <use x="250.976562" xlink:href="#DejaVuSans-95"/>
      <use x="300.976562" xlink:href="#DejaVuSans-101"/>
      <use x="362.5" xlink:href="#DejaVuSans-49"/>
     </g>
    </g>
    <g id="line2d_65">
     <path d="M 393.898909 94.409888 
L 413.898909 94.409888 
" style="fill:none;stroke:#ff7f0e;stroke-linecap:square;stroke-width:1.5;"/>
    </g>
    <g id="line2d_66"/>
    <g id="text_37">
     <!-- vel_z_e2 -->
     <g transform="translate(421.898909 97.909888)scale(0.1 -0.1)">
      <use xlink:href="#DejaVuSans-118"/>
      <use x="59.179688" xlink:href="#DejaVuSans-101"/>
      <use x="120.703125" xlink:href="#DejaVuSans-108"/>
      <use x="148.486328" xlink:href="#DejaVuSans-95"/>
      <use x="198.486328" xlink:href="#DejaVuSans-122"/>
      <use x="250.976562" xlink:href="#DejaVuSans-95"/>
      <use x="300.976562" xlink:href="#DejaVuSans-101"/>
      <use x="362.5" xlink:href="#DejaVuSans-50"/>
     </g>
    </g>
   </g>
  </g>
  <g id="axes_3">
   <g id="patch_14">
    <path d="M 87.84 492.1344 
L 335.389091 492.1344 
L 335.389091 298.5984 
L 87.84 298.5984 
z
" style="fill:#ffffff;"/>
   </g>
   <g id="PathCollection_5">
    <g clip-path="url(#p5d86589870)">
     <use style="fill:#1f77b4;stroke:#1f77b4;" x="324.13686" xlink:href="#mcaf79cc9b2" y="483.337309"/>
    </g>
   </g>
   <g id="PathCollection_6">
    <g clip-path="url(#p5d86589870)">
     <use style="fill:#ff7f0e;stroke:#ff7f0e;" x="324.13686" xlink:href="#m7004dfc307" y="483.318594"/>
    </g>
   </g>
   <g id="PathCollection_7">
    <defs>
     <path d="M 0 0 
L -3.872983 -1.290994 
L -3.227486 0 
L -3.872983 1.290994 
" id="m8b84d1caea" style="stroke:#2ca02c;"/>
    </defs>
    <g clip-path="url(#p5d86589870)">
     <use style="fill:#2ca02c;stroke:#2ca02c;" x="324.13686" xlink:href="#m8b84d1caea" y="409.650809"/>
    </g>
   </g>
   <g id="PathCollection_8">
    <defs>
     <path d="M 0 0 
L -3.872983 -1.290994 
L -3.227486 0 
L -3.872983 1.290994 
" id="m273eee305f" style="stroke:#d62728;"/>
    </defs>
    <g clip-path="url(#p5d86589870)">
     <use style="fill:#d62728;stroke:#d62728;" x="324.13686" xlink:href="#m273eee305f" y="390.072998"/>
    </g>
   </g>
   <g id="PathCollection_9">
    <defs>
     <path d="M 0 0 
L -3.872983 -1.290994 
L -3.227486 0 
L -3.872983 1.290994 
" id="m163350cf00" style="stroke:#9467bd;"/>
    </defs>
    <g clip-path="url(#p5d86589870)">
     <use style="fill:#9467bd;stroke:#9467bd;" x="324.13686" xlink:href="#m163350cf00" y="471.953196"/>
    </g>
   </g>
   <g id="matplotlib.axis_5">
    <g id="xtick_15">
     <g id="line2d_67">
      <path clip-path="url(#p5d86589870)" d="M 98.950516 492.1344 
L 98.950516 298.5984 
" style="fill:none;stroke:#b0b0b0;stroke-linecap:square;stroke-width:0.8;"/>
     </g>
     <g id="line2d_68">
      <g>
       <use style="stroke:#000000;stroke-width:0.8;" x="98.950516" xlink:href="#md0cb480c53" y="492.1344"/>
      </g>
     </g>
     <g id="text_38">
      <!-- 0.00 -->
      <g transform="translate(87.817703 506.732838)scale(0.1 -0.1)">
       <use xlink:href="#DejaVuSans-48"/>
       <use x="63.623047" xlink:href="#DejaVuSans-46"/>
       <use x="95.410156" xlink:href="#DejaVuSans-48"/>
       <use x="159.033203" xlink:href="#DejaVuSans-48"/>
      </g>
     </g>
    </g>
    <g id="xtick_16">
     <g id="line2d_69">
      <path clip-path="url(#p5d86589870)" d="M 134.379456 492.1344 
L 134.379456 298.5984 
" style="fill:none;stroke:#b0b0b0;stroke-linecap:square;stroke-width:0.8;"/>
     </g>
     <g id="line2d_70">
      <g>
       <use style="stroke:#000000;stroke-width:0.8;" x="134.379456" xlink:href="#md0cb480c53" y="492.1344"/>
      </g>
     </g>
     <g id="text_39">
      <!-- 0.25 -->
      <g transform="translate(123.246643 506.732838)scale(0.1 -0.1)">
       <use xlink:href="#DejaVuSans-48"/>
       <use x="63.623047" xlink:href="#DejaVuSans-46"/>
       <use x="95.410156" xlink:href="#DejaVuSans-50"/>
       <use x="159.033203" xlink:href="#DejaVuSans-53"/>
      </g>
     </g>
    </g>
    <g id="xtick_17">
     <g id="line2d_71">
      <path clip-path="url(#p5d86589870)" d="M 169.808396 492.1344 
L 169.808396 298.5984 
" style="fill:none;stroke:#b0b0b0;stroke-linecap:square;stroke-width:0.8;"/>
     </g>
     <g id="line2d_72">
      <g>
       <use style="stroke:#000000;stroke-width:0.8;" x="169.808396" xlink:href="#md0cb480c53" y="492.1344"/>
      </g>
     </g>
     <g id="text_40">
      <!-- 0.50 -->
      <g transform="translate(158.675584 506.732838)scale(0.1 -0.1)">
       <use xlink:href="#DejaVuSans-48"/>
       <use x="63.623047" xlink:href="#DejaVuSans-46"/>
       <use x="95.410156" xlink:href="#DejaVuSans-53"/>
       <use x="159.033203" xlink:href="#DejaVuSans-48"/>
      </g>
     </g>
    </g>
    <g id="xtick_18">
     <g id="line2d_73">
      <path clip-path="url(#p5d86589870)" d="M 205.237336 492.1344 
L 205.237336 298.5984 
" style="fill:none;stroke:#b0b0b0;stroke-linecap:square;stroke-width:0.8;"/>
     </g>
     <g id="line2d_74">
      <g>
       <use style="stroke:#000000;stroke-width:0.8;" x="205.237336" xlink:href="#md0cb480c53" y="492.1344"/>
      </g>
     </g>
     <g id="text_41">
      <!-- 0.75 -->
      <g transform="translate(194.104524 506.732838)scale(0.1 -0.1)">
       <use xlink:href="#DejaVuSans-48"/>
       <use x="63.623047" xlink:href="#DejaVuSans-46"/>
       <use x="95.410156" xlink:href="#DejaVuSans-55"/>
       <use x="159.033203" xlink:href="#DejaVuSans-53"/>
      </g>
     </g>
    </g>
    <g id="xtick_19">
     <g id="line2d_75">
      <path clip-path="url(#p5d86589870)" d="M 240.666276 492.1344 
L 240.666276 298.5984 
" style="fill:none;stroke:#b0b0b0;stroke-linecap:square;stroke-width:0.8;"/>
     </g>
     <g id="line2d_76">
      <g>
       <use style="stroke:#000000;stroke-width:0.8;" x="240.666276" xlink:href="#md0cb480c53" y="492.1344"/>
      </g>
     </g>
     <g id="text_42">
      <!-- 1.00 -->
      <g transform="translate(229.533464 506.732838)scale(0.1 -0.1)">
       <use xlink:href="#DejaVuSans-49"/>
       <use x="63.623047" xlink:href="#DejaVuSans-46"/>
       <use x="95.410156" xlink:href="#DejaVuSans-48"/>
       <use x="159.033203" xlink:href="#DejaVuSans-48"/>
      </g>
     </g>
    </g>
    <g id="xtick_20">
     <g id="line2d_77">
      <path clip-path="url(#p5d86589870)" d="M 276.095217 492.1344 
L 276.095217 298.5984 
" style="fill:none;stroke:#b0b0b0;stroke-linecap:square;stroke-width:0.8;"/>
     </g>
     <g id="line2d_78">
      <g>
       <use style="stroke:#000000;stroke-width:0.8;" x="276.095217" xlink:href="#md0cb480c53" y="492.1344"/>
      </g>
     </g>
     <g id="text_43">
      <!-- 1.25 -->
      <g transform="translate(264.962404 506.732838)scale(0.1 -0.1)">
       <use xlink:href="#DejaVuSans-49"/>
       <use x="63.623047" xlink:href="#DejaVuSans-46"/>
       <use x="95.410156" xlink:href="#DejaVuSans-50"/>
       <use x="159.033203" xlink:href="#DejaVuSans-53"/>
      </g>
     </g>
    </g>
    <g id="xtick_21">
     <g id="line2d_79">
      <path clip-path="url(#p5d86589870)" d="M 311.524157 492.1344 
L 311.524157 298.5984 
" style="fill:none;stroke:#b0b0b0;stroke-linecap:square;stroke-width:0.8;"/>
     </g>
     <g id="line2d_80">
      <g>
       <use style="stroke:#000000;stroke-width:0.8;" x="311.524157" xlink:href="#md0cb480c53" y="492.1344"/>
      </g>
     </g>
     <g id="text_44">
      <!-- 1.50 -->
      <g transform="translate(300.391344 506.732838)scale(0.1 -0.1)">
       <use xlink:href="#DejaVuSans-49"/>
       <use x="63.623047" xlink:href="#DejaVuSans-46"/>
       <use x="95.410156" xlink:href="#DejaVuSans-53"/>
       <use x="159.033203" xlink:href="#DejaVuSans-48"/>
      </g>
     </g>
    </g>
    <g id="text_45">
     <!-- i -->
     <g transform="translate(210.225483 520.410963)scale(0.1 -0.1)">
      <use xlink:href="#DejaVuSans-105"/>
     </g>
    </g>
    <g id="text_46">
     <!-- 1e5 -->
     <g transform="translate(316.510966 519.410963)scale(0.1 -0.1)">
      <use xlink:href="#DejaVuSans-49"/>
      <use x="63.623047" xlink:href="#DejaVuSans-101"/>
      <use x="125.146484" xlink:href="#DejaVuSans-53"/>
     </g>
    </g>
   </g>
   <g id="matplotlib.axis_6">
    <g id="ytick_12">
     <g id="line2d_81">
      <path clip-path="url(#p5d86589870)" d="M 87.84 483.337309 
L 335.389091 483.337309 
" style="fill:none;stroke:#b0b0b0;stroke-linecap:square;stroke-width:0.8;"/>
     </g>
     <g id="line2d_82">
      <g>
       <use style="stroke:#000000;stroke-width:0.8;" x="87.84" xlink:href="#m64c8374b6d" y="483.337309"/>
      </g>
     </g>
     <g id="text_47">
      <!-- 0.0 -->
      <g transform="translate(64.936875 487.136528)scale(0.1 -0.1)">
       <use xlink:href="#DejaVuSans-48"/>
       <use x="63.623047" xlink:href="#DejaVuSans-46"/>
       <use x="95.410156" xlink:href="#DejaVuSans-48"/>
      </g>
     </g>
    </g>
    <g id="ytick_13">
     <g id="line2d_83">
      <path clip-path="url(#p5d86589870)" d="M 87.84 456.183317 
L 335.389091 456.183317 
" style="fill:none;stroke:#b0b0b0;stroke-linecap:square;stroke-width:0.8;"/>
     </g>
     <g id="line2d_84">
      <g>
       <use style="stroke:#000000;stroke-width:0.8;" x="87.84" xlink:href="#m64c8374b6d" y="456.183317"/>
      </g>
     </g>
     <g id="text_48">
      <!-- 0.2 -->
      <g transform="translate(64.936875 459.982536)scale(0.1 -0.1)">
       <use xlink:href="#DejaVuSans-48"/>
       <use x="63.623047" xlink:href="#DejaVuSans-46"/>
       <use x="95.410156" xlink:href="#DejaVuSans-50"/>
      </g>
     </g>
    </g>
    <g id="ytick_14">
     <g id="line2d_85">
      <path clip-path="url(#p5d86589870)" d="M 87.84 429.029325 
L 335.389091 429.029325 
" style="fill:none;stroke:#b0b0b0;stroke-linecap:square;stroke-width:0.8;"/>
     </g>
     <g id="line2d_86">
      <g>
       <use style="stroke:#000000;stroke-width:0.8;" x="87.84" xlink:href="#m64c8374b6d" y="429.029325"/>
      </g>
     </g>
     <g id="text_49">
      <!-- 0.4 -->
      <g transform="translate(64.936875 432.828544)scale(0.1 -0.1)">
       <use xlink:href="#DejaVuSans-48"/>
       <use x="63.623047" xlink:href="#DejaVuSans-46"/>
       <use x="95.410156" xlink:href="#DejaVuSans-52"/>
      </g>
     </g>
    </g>
    <g id="ytick_15">
     <g id="line2d_87">
      <path clip-path="url(#p5d86589870)" d="M 87.84 401.875333 
L 335.389091 401.875333 
" style="fill:none;stroke:#b0b0b0;stroke-linecap:square;stroke-width:0.8;"/>
     </g>
     <g id="line2d_88">
      <g>
       <use style="stroke:#000000;stroke-width:0.8;" x="87.84" xlink:href="#m64c8374b6d" y="401.875333"/>
      </g>
     </g>
     <g id="text_50">
      <!-- 0.6 -->
      <g transform="translate(64.936875 405.674552)scale(0.1 -0.1)">
       <use xlink:href="#DejaVuSans-48"/>
       <use x="63.623047" xlink:href="#DejaVuSans-46"/>
       <use x="95.410156" xlink:href="#DejaVuSans-54"/>
      </g>
     </g>
    </g>
    <g id="ytick_16">
     <g id="line2d_89">
      <path clip-path="url(#p5d86589870)" d="M 87.84 374.721341 
L 335.389091 374.721341 
" style="fill:none;stroke:#b0b0b0;stroke-linecap:square;stroke-width:0.8;"/>
     </g>
     <g id="line2d_90">
      <g>
       <use style="stroke:#000000;stroke-width:0.8;" x="87.84" xlink:href="#m64c8374b6d" y="374.721341"/>
      </g>
     </g>
     <g id="text_51">
      <!-- 0.8 -->
      <g transform="translate(64.936875 378.520559)scale(0.1 -0.1)">
       <use xlink:href="#DejaVuSans-48"/>
       <use x="63.623047" xlink:href="#DejaVuSans-46"/>
       <use x="95.410156" xlink:href="#DejaVuSans-56"/>
      </g>
     </g>
    </g>
    <g id="ytick_17">
     <g id="line2d_91">
      <path clip-path="url(#p5d86589870)" d="M 87.84 347.567349 
L 335.389091 347.567349 
" style="fill:none;stroke:#b0b0b0;stroke-linecap:square;stroke-width:0.8;"/>
     </g>
     <g id="line2d_92">
      <g>
       <use style="stroke:#000000;stroke-width:0.8;" x="87.84" xlink:href="#m64c8374b6d" y="347.567349"/>
      </g>
     </g>
     <g id="text_52">
      <!-- 1.0 -->
      <g transform="translate(64.936875 351.366567)scale(0.1 -0.1)">
       <use xlink:href="#DejaVuSans-49"/>
       <use x="63.623047" xlink:href="#DejaVuSans-46"/>
       <use x="95.410156" xlink:href="#DejaVuSans-48"/>
      </g>
     </g>
    </g>
    <g id="ytick_18">
     <g id="line2d_93">
      <path clip-path="url(#p5d86589870)" d="M 87.84 320.413356 
L 335.389091 320.413356 
" style="fill:none;stroke:#b0b0b0;stroke-linecap:square;stroke-width:0.8;"/>
     </g>
     <g id="line2d_94">
      <g>
       <use style="stroke:#000000;stroke-width:0.8;" x="87.84" xlink:href="#m64c8374b6d" y="320.413356"/>
      </g>
     </g>
     <g id="text_53">
      <!-- 1.2 -->
      <g transform="translate(64.936875 324.212575)scale(0.1 -0.1)">
       <use xlink:href="#DejaVuSans-49"/>
       <use x="63.623047" xlink:href="#DejaVuSans-46"/>
       <use x="95.410156" xlink:href="#DejaVuSans-50"/>
      </g>
     </g>
    </g>
    <g id="text_54">
     <!-- elastPotential, gravWork, kinetic, nonviscDamp, plastDissip -->
     <g transform="translate(58.857187 543.877338)rotate(-90)scale(0.1 -0.1)">
      <defs>
       <path d="M 34.28125 27.484375 
Q 23.390625 27.484375 19.1875 25 
Q 14.984375 22.515625 14.984375 16.5 
Q 14.984375 11.71875 18.140625 8.90625 
Q 21.296875 6.109375 26.703125 6.109375 
Q 34.1875 6.109375 38.703125 11.40625 
Q 43.21875 16.703125 43.21875 25.484375 
L 43.21875 27.484375 
z
M 52.203125 31.203125 
L 52.203125 0 
L 43.21875 0 
L 43.21875 8.296875 
Q 40.140625 3.328125 35.546875 0.953125 
Q 30.953125 -1.421875 24.3125 -1.421875 
Q 15.921875 -1.421875 10.953125 3.296875 
Q 6 8.015625 6 15.921875 
Q 6 25.140625 12.171875 29.828125 
Q 18.359375 34.515625 30.609375 34.515625 
L 43.21875 34.515625 
L 43.21875 35.40625 
Q 43.21875 41.609375 39.140625 45 
Q 35.0625 48.390625 27.6875 48.390625 
Q 23 48.390625 18.546875 47.265625 
Q 14.109375 46.140625 10.015625 43.890625 
L 10.015625 52.203125 
Q 14.9375 54.109375 19.578125 55.046875 
Q 24.21875 56 28.609375 56 
Q 40.484375 56 46.34375 49.84375 
Q 52.203125 43.703125 52.203125 31.203125 
z
" id="DejaVuSans-97"/>
       <path d="M 18.3125 70.21875 
L 18.3125 54.6875 
L 36.8125 54.6875 
L 36.8125 47.703125 
L 18.3125 47.703125 
L 18.3125 18.015625 
Q 18.3125 11.328125 20.140625 9.421875 
Q 21.96875 7.515625 27.59375 7.515625 
L 36.8125 7.515625 
L 36.8125 0 
L 27.59375 0 
Q 17.1875 0 13.234375 3.875 
Q 9.28125 7.765625 9.28125 18.015625 
L 9.28125 47.703125 
L 2.6875 47.703125 
L 2.6875 54.6875 
L 9.28125 54.6875 
L 9.28125 70.21875 
z
" id="DejaVuSans-116"/>
       <path d="M 19.671875 64.796875 
L 19.671875 37.40625 
L 32.078125 37.40625 
Q 38.96875 37.40625 42.71875 40.96875 
Q 46.484375 44.53125 46.484375 51.125 
Q 46.484375 57.671875 42.71875 61.234375 
Q 38.96875 64.796875 32.078125 64.796875 
z
M 9.8125 72.90625 
L 32.078125 72.90625 
Q 44.34375 72.90625 50.609375 67.359375 
Q 56.890625 61.8125 56.890625 51.125 
Q 56.890625 40.328125 50.609375 34.8125 
Q 44.34375 29.296875 32.078125 29.296875 
L 19.671875 29.296875 
L 19.671875 0 
L 9.8125 0 
z
" id="DejaVuSans-80"/>
       <path d="M 54.890625 33.015625 
L 54.890625 0 
L 45.90625 0 
L 45.90625 32.71875 
Q 45.90625 40.484375 42.875 44.328125 
Q 39.84375 48.1875 33.796875 48.1875 
Q 26.515625 48.1875 22.3125 43.546875 
Q 18.109375 38.921875 18.109375 30.90625 
L 18.109375 0 
L 9.078125 0 
L 9.078125 54.6875 
L 18.109375 54.6875 
L 18.109375 46.1875 
Q 21.34375 51.125 25.703125 53.5625 
Q 30.078125 56 35.796875 56 
Q 45.21875 56 50.046875 50.171875 
Q 54.890625 44.34375 54.890625 33.015625 
z
" id="DejaVuSans-110"/>
       <path d="M 45.40625 27.984375 
Q 45.40625 37.75 41.375 43.109375 
Q 37.359375 48.484375 30.078125 48.484375 
Q 22.859375 48.484375 18.828125 43.109375 
Q 14.796875 37.75 14.796875 27.984375 
Q 14.796875 18.265625 18.828125 12.890625 
Q 22.859375 7.515625 30.078125 7.515625 
Q 37.359375 7.515625 41.375 12.890625 
Q 45.40625 18.265625 45.40625 27.984375 
z
M 54.390625 6.78125 
Q 54.390625 -7.171875 48.1875 -13.984375 
Q 42 -20.796875 29.203125 -20.796875 
Q 24.46875 -20.796875 20.265625 -20.09375 
Q 16.0625 -19.390625 12.109375 -17.921875 
L 12.109375 -9.1875 
Q 16.0625 -11.328125 19.921875 -12.34375 
Q 23.78125 -13.375 27.78125 -13.375 
Q 36.625 -13.375 41.015625 -8.765625 
Q 45.40625 -4.15625 45.40625 5.171875 
L 45.40625 9.625 
Q 42.625 4.78125 38.28125 2.390625 
Q 33.9375 0 27.875 0 
Q 17.828125 0 11.671875 7.65625 
Q 5.515625 15.328125 5.515625 27.984375 
Q 5.515625 40.671875 11.671875 48.328125 
Q 17.828125 56 27.875 56 
Q 33.9375 56 38.28125 53.609375 
Q 42.625 51.21875 45.40625 46.390625 
L 45.40625 54.6875 
L 54.390625 54.6875 
z
" id="DejaVuSans-103"/>
       <path d="M 41.109375 46.296875 
Q 39.59375 47.171875 37.8125 47.578125 
Q 36.03125 48 33.890625 48 
Q 26.265625 48 22.1875 43.046875 
Q 18.109375 38.09375 18.109375 28.8125 
L 18.109375 0 
L 9.078125 0 
L 9.078125 54.6875 
L 18.109375 54.6875 
L 18.109375 46.1875 
Q 20.953125 51.171875 25.484375 53.578125 
Q 30.03125 56 36.53125 56 
Q 37.453125 56 38.578125 55.875 
Q 39.703125 55.765625 41.0625 55.515625 
z
" id="DejaVuSans-114"/>
       <path d="M 3.328125 72.90625 
L 13.28125 72.90625 
L 28.609375 11.28125 
L 43.890625 72.90625 
L 54.984375 72.90625 
L 70.3125 11.28125 
L 85.59375 72.90625 
L 95.609375 72.90625 
L 77.296875 0 
L 64.890625 0 
L 49.515625 63.28125 
L 33.984375 0 
L 21.578125 0 
z
" id="DejaVuSans-87"/>
       <path d="M 9.078125 75.984375 
L 18.109375 75.984375 
L 18.109375 31.109375 
L 44.921875 54.6875 
L 56.390625 54.6875 
L 27.390625 29.109375 
L 57.625 0 
L 45.90625 0 
L 18.109375 26.703125 
L 18.109375 0 
L 9.078125 0 
z
" id="DejaVuSans-107"/>
       <path d="M 48.78125 52.59375 
L 48.78125 44.1875 
Q 44.96875 46.296875 41.140625 47.34375 
Q 37.3125 48.390625 33.40625 48.390625 
Q 24.65625 48.390625 19.8125 42.84375 
Q 14.984375 37.3125 14.984375 27.296875 
Q 14.984375 17.28125 19.8125 11.734375 
Q 24.65625 6.203125 33.40625 6.203125 
Q 37.3125 6.203125 41.140625 7.25 
Q 44.96875 8.296875 48.78125 10.40625 
L 48.78125 2.09375 
Q 45.015625 0.34375 40.984375 -0.53125 
Q 36.96875 -1.421875 32.421875 -1.421875 
Q 20.0625 -1.421875 12.78125 6.34375 
Q 5.515625 14.109375 5.515625 27.296875 
Q 5.515625 40.671875 12.859375 48.328125 
Q 20.21875 56 33.015625 56 
Q 37.15625 56 41.109375 55.140625 
Q 45.0625 54.296875 48.78125 52.59375 
z
" id="DejaVuSans-99"/>
       <path d="M 19.671875 64.796875 
L 19.671875 8.109375 
L 31.59375 8.109375 
Q 46.6875 8.109375 53.6875 14.9375 
Q 60.6875 21.78125 60.6875 36.53125 
Q 60.6875 51.171875 53.6875 57.984375 
Q 46.6875 64.796875 31.59375 64.796875 
z
M 9.8125 72.90625 
L 30.078125 72.90625 
Q 51.265625 72.90625 61.171875 64.09375 
Q 71.09375 55.28125 71.09375 36.53125 
Q 71.09375 17.671875 61.125 8.828125 
Q 51.171875 0 30.078125 0 
L 9.8125 0 
z
" id="DejaVuSans-68"/>
       <path d="M 52 44.1875 
Q 55.375 50.25 60.0625 53.125 
Q 64.75 56 71.09375 56 
Q 79.640625 56 84.28125 50.015625 
Q 88.921875 44.046875 88.921875 33.015625 
L 88.921875 0 
L 79.890625 0 
L 79.890625 32.71875 
Q 79.890625 40.578125 77.09375 44.375 
Q 74.3125 48.1875 68.609375 48.1875 
Q 61.625 48.1875 57.5625 43.546875 
Q 53.515625 38.921875 53.515625 30.90625 
L 53.515625 0 
L 44.484375 0 
L 44.484375 32.71875 
Q 44.484375 40.625 41.703125 44.40625 
Q 38.921875 48.1875 33.109375 48.1875 
Q 26.21875 48.1875 22.15625 43.53125 
Q 18.109375 38.875 18.109375 30.90625 
L 18.109375 0 
L 9.078125 0 
L 9.078125 54.6875 
L 18.109375 54.6875 
L 18.109375 46.1875 
Q 21.1875 51.21875 25.484375 53.609375 
Q 29.78125 56 35.6875 56 
Q 41.65625 56 45.828125 52.96875 
Q 50 49.953125 52 44.1875 
z
" id="DejaVuSans-109"/>
      </defs>
      <use xlink:href="#DejaVuSans-101"/>
      <use x="61.523438" xlink:href="#DejaVuSans-108"/>
      <use x="89.306641" xlink:href="#DejaVuSans-97"/>
      <use x="150.585938" xlink:href="#DejaVuSans-115"/>
      <use x="202.685547" xlink:href="#DejaVuSans-116"/>
      <use x="241.894531" xlink:href="#DejaVuSans-80"/>
      <use x="298.572266" xlink:href="#DejaVuSans-111"/>
      <use x="359.753906" xlink:href="#DejaVuSans-116"/>
      <use x="398.962891" xlink:href="#DejaVuSans-101"/>
      <use x="460.486328" xlink:href="#DejaVuSans-110"/>
      <use x="523.865234" xlink:href="#DejaVuSans-116"/>
      <use x="563.074219" xlink:href="#DejaVuSans-105"/>
      <use x="590.857422" xlink:href="#DejaVuSans-97"/>
      <use x="652.136719" xlink:href="#DejaVuSans-108"/>
      <use x="679.919922" xlink:href="#DejaVuSans-44"/>
      <use x="711.707031" xlink:href="#DejaVuSans-32"/>
      <use x="743.494141" xlink:href="#DejaVuSans-103"/>
      <use x="806.970703" xlink:href="#DejaVuSans-114"/>
      <use x="848.083984" xlink:href="#DejaVuSans-97"/>
      <use x="909.363281" xlink:href="#DejaVuSans-118"/>
      <use x="968.542969" xlink:href="#DejaVuSans-87"/>
      <use x="1061.544922" xlink:href="#DejaVuSans-111"/>
      <use x="1122.726562" xlink:href="#DejaVuSans-114"/>
      <use x="1163.839844" xlink:href="#DejaVuSans-107"/>
      <use x="1221.75" xlink:href="#DejaVuSans-44"/>
      <use x="1253.537109" xlink:href="#DejaVuSans-32"/>
      <use x="1285.324219" xlink:href="#DejaVuSans-107"/>
      <use x="1343.234375" xlink:href="#DejaVuSans-105"/>
      <use x="1371.017578" xlink:href="#DejaVuSans-110"/>
      <use x="1434.396484" xlink:href="#DejaVuSans-101"/>
      <use x="1495.919922" xlink:href="#DejaVuSans-116"/>
      <use x="1535.128906" xlink:href="#DejaVuSans-105"/>
      <use x="1562.912109" xlink:href="#DejaVuSans-99"/>
      <use x="1617.892578" xlink:href="#DejaVuSans-44"/>
      <use x="1649.679688" xlink:href="#DejaVuSans-32"/>
      <use x="1681.466797" xlink:href="#DejaVuSans-110"/>
      <use x="1744.845703" xlink:href="#DejaVuSans-111"/>
      <use x="1806.027344" xlink:href="#DejaVuSans-110"/>
      <use x="1869.40625" xlink:href="#DejaVuSans-118"/>
      <use x="1928.585938" xlink:href="#DejaVuSans-105"/>
      <use x="1956.369141" xlink:href="#DejaVuSans-115"/>
      <use x="2008.46875" xlink:href="#DejaVuSans-99"/>
      <use x="2063.449219" xlink:href="#DejaVuSans-68"/>
      <use x="2140.451172" xlink:href="#DejaVuSans-97"/>
      <use x="2201.730469" xlink:href="#DejaVuSans-109"/>
      <use x="2299.142578" xlink:href="#DejaVuSans-112"/>
      <use x="2362.619141" xlink:href="#DejaVuSans-44"/>
      <use x="2394.40625" xlink:href="#DejaVuSans-32"/>
      <use x="2426.193359" xlink:href="#DejaVuSans-112"/>
      <use x="2489.669922" xlink:href="#DejaVuSans-108"/>
      <use x="2517.453125" xlink:href="#DejaVuSans-97"/>
      <use x="2578.732422" xlink:href="#DejaVuSans-115"/>
      <use x="2630.832031" xlink:href="#DejaVuSans-116"/>
      <use x="2670.041016" xlink:href="#DejaVuSans-68"/>
      <use x="2747.042969" xlink:href="#DejaVuSans-105"/>
      <use x="2774.826172" xlink:href="#DejaVuSans-115"/>
      <use x="2826.925781" xlink:href="#DejaVuSans-115"/>
      <use x="2879.025391" xlink:href="#DejaVuSans-105"/>
      <use x="2906.808594" xlink:href="#DejaVuSans-112"/>
     </g>
    </g>
    <g id="text_55">
     <!-- 1e2 -->
     <g transform="translate(87.84 295.5984)scale(0.1 -0.1)">
      <use xlink:href="#DejaVuSans-49"/>
      <use x="63.623047" xlink:href="#DejaVuSans-101"/>
      <use x="125.146484" xlink:href="#DejaVuSans-50"/>
     </g>
    </g>
   </g>
   <g id="line2d_95">
    <path clip-path="url(#p5d86589870)" d="M 99.092231 483.337309 
L 324.13686 483.337309 
L 324.13686 483.337309 
" style="fill:none;stroke:#1f77b4;stroke-linecap:square;stroke-width:1.5;"/>
   </g>
   <g id="line2d_96"/>
   <g id="line2d_97">
    <path clip-path="url(#p5d86589870)" d="M 99.092231 483.337309 
L 324.13686 483.318594 
L 324.13686 483.318594 
" style="fill:none;stroke:#ff7f0e;stroke-linecap:square;stroke-width:1.5;"/>
   </g>
   <g id="line2d_98"/>
   <g id="line2d_99">
    <path clip-path="url(#p5d86589870)" d="M 99.092231 483.337309 
L 179.01992 483.337309 
L 179.161636 307.395491 
L 210.764251 309.913029 
L 210.905967 342.235714 
L 211.047682 342.235881 
L 211.189398 366.711701 
L 211.756261 366.712285 
L 211.897977 385.542267 
L 213.031703 385.543326 
L 213.173419 386.071727 
L 213.315135 386.071816 
L 213.45685 388.121691 
L 213.598566 388.121763 
L 213.881998 388.247484 
L 215.157439 388.352561 
L 215.582587 388.396393 
L 217.283176 388.482549 
L 217.566607 388.552261 
L 218.275186 388.642824 
L 218.700333 388.691516 
L 219.83406 388.776173 
L 220.82607 388.881 
L 223.660385 389.125439 
L 230.037594 389.71305 
L 234.572499 390.127776 
L 234.714214 390.547104 
L 253.704126 392.200403 
L 253.845842 392.525114 
L 256.538442 392.756532 
L 259.93962 393.043798 
L 260.081336 405.821181 
L 269.29286 405.945219 
L 269.434576 406.190854 
L 282.047279 406.321737 
L 282.188994 406.516371 
L 292.534245 406.591963 
L 292.817676 406.749114 
L 301.178906 406.859693 
L 301.604054 406.91739 
L 304.154937 406.926684 
L 304.296653 409.259123 
L 313.791609 409.419308 
L 314.07504 409.500526 
L 324.13686 409.650809 
L 324.13686 409.650809 
" style="fill:none;stroke:#2ca02c;stroke-linecap:square;stroke-width:1.5;"/>
   </g>
   <g id="line2d_100"/>
   <g id="line2d_101">
    <path clip-path="url(#p5d86589870)" d="M 99.092231 483.337309 
L 194.183507 483.226937 
L 210.764251 483.105008 
L 210.905967 451.17173 
L 211.047682 451.171714 
L 211.189398 424.91587 
L 211.756261 424.915817 
L 211.897977 406.285142 
L 213.031703 406.285044 
L 213.173419 405.740114 
L 213.315135 405.740104 
L 213.45685 403.662162 
L 225.786122 403.552097 
L 242.508581 403.363189 
L 259.93962 403.173332 
L 260.081336 390.572415 
L 304.154937 390.393426 
L 304.296653 390.154286 
L 324.13686 390.072998 
L 324.13686 390.072998 
" style="fill:none;stroke:#d62728;stroke-linecap:square;stroke-width:1.5;"/>
   </g>
   <g id="line2d_102"/>
   <g id="line2d_103">
    <path clip-path="url(#p5d86589870)" d="M 179.161636 483.334096 
L 210.764251 481.048539 
L 210.905967 479.849994 
L 211.756261 479.849994 
L 212.039693 479.707657 
L 213.598566 479.707657 
L 213.881998 479.59355 
L 215.157439 479.498497 
L 215.582587 479.458994 
L 217.283176 479.381189 
L 217.566607 479.317894 
L 218.275186 479.235801 
L 218.700333 479.192034 
L 220.259207 479.087611 
L 221.81808 478.946933 
L 234.572499 477.890401 
L 234.714214 477.511447 
L 253.704126 476.02681 
L 253.845842 475.735515 
L 256.963589 475.49556 
L 261.923641 475.246159 
L 269.29286 475.179085 
L 269.434576 474.9604 
L 282.047279 474.864838 
L 282.33071 474.691483 
L 292.534245 474.632395 
L 292.817676 474.493881 
L 304.154937 474.337551 
L 304.296653 472.245249 
L 313.791609 472.134808 
L 314.07504 472.064765 
L 324.13686 471.953196 
L 324.13686 471.953196 
" style="fill:none;stroke:#9467bd;stroke-linecap:square;stroke-width:1.5;"/>
   </g>
   <g id="line2d_104"/>
   <g id="patch_15">
    <path d="M 87.84 492.1344 
L 87.84 298.5984 
" style="fill:none;stroke:#000000;stroke-linecap:square;stroke-linejoin:miter;stroke-width:0.8;"/>
   </g>
   <g id="patch_16">
    <path d="M 335.389091 492.1344 
L 335.389091 298.5984 
" style="fill:none;stroke:#000000;stroke-linecap:square;stroke-linejoin:miter;stroke-width:0.8;"/>
   </g>
   <g id="patch_17">
    <path d="M 87.84 492.1344 
L 335.389091 492.1344 
" style="fill:none;stroke:#000000;stroke-linecap:square;stroke-linejoin:miter;stroke-width:0.8;"/>
   </g>
   <g id="patch_18">
    <path d="M 87.84 298.5984 
L 335.389091 298.5984 
" style="fill:none;stroke:#000000;stroke-linecap:square;stroke-linejoin:miter;stroke-width:0.8;"/>
   </g>
   <g id="legend_3">
    <g id="patch_19">
     <path d="M 228.273466 379.989025 
L 328.389091 379.989025 
Q 330.389091 379.989025 330.389091 377.989025 
L 330.389091 305.5984 
Q 330.389091 303.5984 328.389091 303.5984 
L 228.273466 303.5984 
Q 226.273466 303.5984 226.273466 305.5984 
L 226.273466 377.989025 
Q 226.273466 379.989025 228.273466 379.989025 
z
" style="fill:#ffffff;opacity:0.8;stroke:#cccccc;stroke-linejoin:miter;"/>
    </g>
    <g id="line2d_105">
     <path d="M 230.273466 311.696837 
L 250.273466 311.696837 
" style="fill:none;stroke:#1f77b4;stroke-linecap:square;stroke-width:1.5;"/>
    </g>
    <g id="line2d_106"/>
    <g id="text_56">
     <!-- elastPotential -->
     <g transform="translate(258.273466 315.196837)scale(0.1 -0.1)">
      <use xlink:href="#DejaVuSans-101"/>
      <use x="61.523438" xlink:href="#DejaVuSans-108"/>
      <use x="89.306641" xlink:href="#DejaVuSans-97"/>
      <use x="150.585938" xlink:href="#DejaVuSans-115"/>
      <use x="202.685547" xlink:href="#DejaVuSans-116"/>
      <use x="241.894531" xlink:href="#DejaVuSans-80"/>
      <use x="298.572266" xlink:href="#DejaVuSans-111"/>
      <use x="359.753906" xlink:href="#DejaVuSans-116"/>
      <use x="398.962891" xlink:href="#DejaVuSans-101"/>
      <use x="460.486328" xlink:href="#DejaVuSans-110"/>
      <use x="523.865234" xlink:href="#DejaVuSans-116"/>
      <use x="563.074219" xlink:href="#DejaVuSans-105"/>
      <use x="590.857422" xlink:href="#DejaVuSans-97"/>
      <use x="652.136719" xlink:href="#DejaVuSans-108"/>
     </g>
    </g>
    <g id="line2d_107">
     <path d="M 230.273466 326.374962 
L 250.273466 326.374962 
" style="fill:none;stroke:#ff7f0e;stroke-linecap:square;stroke-width:1.5;"/>
    </g>
    <g id="line2d_108"/>
    <g id="text_57">
     <!-- gravWork -->
     <g transform="translate(258.273466 329.874962)scale(0.1 -0.1)">
      <use xlink:href="#DejaVuSans-103"/>
      <use x="63.476562" xlink:href="#DejaVuSans-114"/>
      <use x="104.589844" xlink:href="#DejaVuSans-97"/>
      <use x="165.869141" xlink:href="#DejaVuSans-118"/>
      <use x="225.048828" xlink:href="#DejaVuSans-87"/>
      <use x="318.050781" xlink:href="#DejaVuSans-111"/>
      <use x="379.232422" xlink:href="#DejaVuSans-114"/>
      <use x="420.345703" xlink:href="#DejaVuSans-107"/>
     </g>
    </g>
    <g id="line2d_109">
     <path d="M 230.273466 341.053087 
L 250.273466 341.053087 
" style="fill:none;stroke:#2ca02c;stroke-linecap:square;stroke-width:1.5;"/>
    </g>
    <g id="line2d_110"/>
    <g id="text_58">
     <!-- kinetic -->
     <g transform="translate(258.273466 344.553087)scale(0.1 -0.1)">
      <use xlink:href="#DejaVuSans-107"/>
      <use x="57.910156" xlink:href="#DejaVuSans-105"/>
      <use x="85.693359" xlink:href="#DejaVuSans-110"/>
      <use x="149.072266" xlink:href="#DejaVuSans-101"/>
      <use x="210.595703" xlink:href="#DejaVuSans-116"/>
      <use x="249.804688" xlink:href="#DejaVuSans-105"/>
      <use x="277.587891" xlink:href="#DejaVuSans-99"/>
     </g>
    </g>
    <g id="line2d_111">
     <path d="M 230.273466 355.731212 
L 250.273466 355.731212 
" style="fill:none;stroke:#d62728;stroke-linecap:square;stroke-width:1.5;"/>
    </g>
    <g id="line2d_112"/>
    <g id="text_59">
     <!-- nonviscDamp -->
     <g transform="translate(258.273466 359.231212)scale(0.1 -0.1)">
      <use xlink:href="#DejaVuSans-110"/>
      <use x="63.378906" xlink:href="#DejaVuSans-111"/>
      <use x="124.560547" xlink:href="#DejaVuSans-110"/>
      <use x="187.939453" xlink:href="#DejaVuSans-118"/>
      <use x="247.119141" xlink:href="#DejaVuSans-105"/>
      <use x="274.902344" xlink:href="#DejaVuSans-115"/>
      <use x="327.001953" xlink:href="#DejaVuSans-99"/>
      <use x="381.982422" xlink:href="#DejaVuSans-68"/>
      <use x="458.984375" xlink:href="#DejaVuSans-97"/>
      <use x="520.263672" xlink:href="#DejaVuSans-109"/>
      <use x="617.675781" xlink:href="#DejaVuSans-112"/>
     </g>
    </g>
    <g id="line2d_113">
     <path d="M 230.273466 370.409337 
L 250.273466 370.409337 
" style="fill:none;stroke:#9467bd;stroke-linecap:square;stroke-width:1.5;"/>
    </g>
    <g id="line2d_114"/>
    <g id="text_60">
     <!-- plastDissip -->
     <g transform="translate(258.273466 373.909337)scale(0.1 -0.1)">
      <use xlink:href="#DejaVuSans-112"/>
      <use x="63.476562" xlink:href="#DejaVuSans-108"/>
      <use x="91.259766" xlink:href="#DejaVuSans-97"/>
      <use x="152.539062" xlink:href="#DejaVuSans-115"/>
      <use x="204.638672" xlink:href="#DejaVuSans-116"/>
      <use x="243.847656" xlink:href="#DejaVuSans-68"/>
      <use x="320.849609" xlink:href="#DejaVuSans-105"/>
      <use x="348.632812" xlink:href="#DejaVuSans-115"/>
      <use x="400.732422" xlink:href="#DejaVuSans-115"/>
      <use x="452.832031" xlink:href="#DejaVuSans-105"/>
      <use x="480.615234" xlink:href="#DejaVuSans-112"/>
     </g>
    </g>
   </g>
  </g>
 </g>
 <defs>
  <clipPath id="p9f4c75de58">
   <rect height="193.536" width="247.549091" x="87.84" y="66.3552"/>
  </clipPath>
  <clipPath id="pa9ce80ea1c">
   <rect height="193.536" width="247.549091" x="384.898909" y="66.3552"/>
  </clipPath>
  <clipPath id="p5d86589870">
   <rect height="193.536" width="247.549091" x="87.84" y="298.5984"/>
  </clipPath>
 </defs>
</svg>
